<svg version="1.1" xmlns="http://www.w3.org/2000/svg" style="display: block;" viewBox="0 0 2048 2048" width="1024" height="1024" preserveAspectRatio="none"><path d="M1011 292C1011 291 1012 290 1012 288L1016 287C1016 294 1015 304 1017 310L1018 312C1020 311 1022 311 1023 311C1021 313 1020 314 1017 316C1035 335 1053 356 1070 375C1072 373 1072 369 1072 366L1073 375C1075 373 1073 345 1075 341C1076 352 1074 379 1078 387L1078 390C1077 421 1077 462 1078 493C1091 502 1103 512 1115 522L1119 523C1120 525 1122 530 1123 532L1122 535C1120 564 1121 603 1121 633L1119 811C1135 799 1150 790 1167 780C1160 780 1144 780 1138 779L1137 777C1143 774 1159 775 1165 775C1166 769 1165 758 1166 751C1166 745 1166 735 1167 729L1168 728C1170 735 1169 745 1169 752C1169 758 1168 769 1171 775C1171 776 1175 776 1177 776C1200 776 1234 775 1256 776L1256 777C1248 779 1191 780 1184 778C1180 779 1179 778 1176 780C1179 783 1184 786 1188 789C1220 811 1250 835 1282 858L1285 858C1292 867 1285 969 1286 986C1313 978 1342 970 1369 961L1369 941C1369 946 1369 957 1371 960L1372 956L1373 959L1376 959C1390 954 1405 948 1419 942L1427 938L1428 897C1430 835 1430 773 1429 710L1429 699C1422 700 1417 700 1410 699C1417 697 1422 696 1429 695L1429 679C1429 675 1429 670 1429 666C1417 666 1369 668 1362 666C1370 663 1416 664 1428 663C1428 652 1425 595 1426 588C1430 596 1431 651 1432 663C1475 661 1518 660 1562 660C1567 659 1584 657 1587 654L1588 650C1590 647 1589 643 1589 640C1591 635 1591 631 1592 625L1592 626C1592 632 1593 636 1593 641L1594 642L1597 636C1599 639 1597 644 1596 647L1597 649L1600 650L1598 652L1596 653C1597 656 1601 658 1604 659C1606 659 1608 658 1610 658L1610 660C1605 661 1605 661 1602 663C1603 666 1702 786 1712 802C1719 813 1756 863 1765 872L1769 873C1770 878 1770 878 1775 879C1779 879 1782 880 1785 878C1786 873 1785 866 1787 863L1788 863C1789 869 1788 874 1788 879C1812 879 1850 878 1873 880L1873 881C1860 884 1849 883 1835 883L1788 883C1785 1114 1690 1335 1525 1497C1511 1511 1494 1528 1478 1540C1499 1541 1522 1540 1543 1540C1615 1539 1687 1541 1759 1540C1759 1510 1759 1479 1759 1449C1759 1434 1759 1411 1760 1397C1764 1401 1763 1523 1763 1540C1772 1540 1824 1539 1829 1542C1813 1544 1781 1543 1763 1544C1763 1560 1763 1577 1763 1594C1771 1597 1771 1598 1774 1606C1791 1606 1867 1604 1878 1607L1878 1608C1871 1610 1847 1609 1838 1609L1774 1609C1771 1616 1769 1618 1763 1622C1763 1631 1763 1701 1761 1703C1758 1694 1759 1634 1759 1621C1751 1618 1751 1617 1746 1609L1571 1609C1539 1609 1505 1609 1473 1609C1474 1632 1476 1829 1472 1834C1469 1825 1470 1777 1470 1764C1471 1713 1470 1661 1470 1609L1418 1609C1411 1609 1389 1608 1384 1610C1372 1614 1354 1625 1342 1632C1332 1637 1322 1642 1312 1647C1224 1687 1138 1711 1041 1711C1038 1720 1036 1723 1027 1727C1026 1727 1025 1728 1024 1728C1024 1738 1025 1813 1023 1816C1020 1803 1021 1744 1021 1727C1011 1724 1008 1722 1004 1713L1003 1712C910 1708 827 1686 742 1647C731 1642 720 1636 709 1630C702 1626 678 1611 671 1610C653 1608 626 1609 607 1609C606 1632 608 1827 605 1832L604 1830L605 1832L606 1831L604 1830L606 1830L604 1829C602 1809 604 1775 603 1754L603 1609C504 1608 399 1609 298 1609C291 1623 288 1613 286 1632C285 1644 288 1695 284 1702C282 1684 283 1641 283 1621C265 1613 282 1610 255 1609C241 1609 180 1611 172 1608C177 1604 258 1606 272 1606C274 1602 282 1592 282 1592C284 1577 283 1559 283 1544C273 1543 263 1543 254 1542C256 1540 279 1540 283 1540C284 1496 283 1451 283 1406L286 1401C287 1416 286 1437 286 1453L287 1540C321 1539 364 1540 399 1540C458 1540 518 1540 577 1540C574 1538 571 1536 568 1533C550 1519 534 1502 517 1486C379 1345 292 1161 273 964C270 964 262 966 260 963C264 961 268 962 272 962C272 955 271 948 271 942C258 941 211 942 202 940C209 937 260 938 270 938C269 926 269 914 270 902C274 914 273 926 274 938L295 938L296 936C298 933 298 923 298 919C298 924 298 934 299 938C315 937 331 938 346 938C408 938 470 936 532 939C531 933 530 926 530 920C531 924 533 936 536 937C538 934 538 932 538 928L539 935L540 935L541 929C542 934 541 934 543 937C546 938 548 938 551 938C560 938 565 938 574 940L575 941L572 941L572 941C570 941 567 941 564 941C559 941 547 941 542 943L542 945C545 949 688 1027 705 1037C706 1010 702 983 701 956C701 950 701 945 701 939L699 937C702 934 701 936 702 933C699 931 696 931 692 931L692 931L702 926C701 915 702 902 702 891C687 894 672 899 657 902C652 903 645 906 640 907L640 906C643 902 693 890 702 887C702 879 701 823 702 819L704 819C706 823 705 878 705 886C727 881 751 873 772 868C775 863 775 802 776 791C776 750 778 708 778 668C778 659 782 638 780 633L779 631L780 631L784 633C784 637 784 642 784 647C793 643 882 598 885 594L888 593L889 593L894 591C897 591 901 588 905 589C903 592 899 593 896 595C905 603 919 612 930 618L929 523C929 506 930 486 929 469C926 467 925 469 921 470L920 469C923 467 928 464 930 461C930 459 930 457 932 455L935 456L940 454C940 450 941 447 940 444C926 441 895 447 884 444C889 440 931 440 941 440C941 429 942 370 939 363C939 363 939 363 939 363C941 356 967 342 975 338L977 335C980 323 980 313 979 300C980 297 981 297 983 295C989 295 990 297 994 301L994 316L994 324L997 323C1001 321 1004 319 1008 315L1010 313L1009 311C1011 307 1011 297 1011 292z"/><path d="M1775 879C1779 879 1782 880 1785 878C1786 873 1785 866 1787 863L1788 863C1789 869 1788 874 1788 879C1812 879 1850 878 1873 880L1873 881C1860 884 1849 883 1835 883L1788 883C1785 1114 1690 1335 1525 1497C1511 1511 1494 1528 1478 1540C1499 1541 1522 1540 1543 1540C1615 1539 1687 1541 1759 1540C1759 1510 1759 1479 1759 1449C1759 1434 1759 1411 1760 1397C1764 1401 1763 1523 1763 1540C1772 1540 1824 1539 1829 1542C1813 1544 1781 1543 1763 1544C1763 1560 1763 1577 1763 1594C1771 1597 1771 1598 1774 1606C1791 1606 1867 1604 1878 1607L1878 1608C1871 1610 1847 1609 1838 1609L1774 1609C1771 1616 1769 1618 1763 1622C1763 1631 1763 1701 1761 1703C1758 1694 1759 1634 1759 1621C1751 1618 1751 1617 1746 1609L1571 1609C1539 1609 1505 1609 1473 1609C1474 1632 1476 1829 1472 1834C1469 1825 1470 1777 1470 1764C1471 1713 1470 1661 1470 1609L1418 1609C1411 1609 1389 1608 1384 1610C1372 1614 1354 1625 1342 1632C1332 1637 1322 1642 1312 1647C1224 1687 1138 1711 1041 1711C1038 1720 1036 1723 1027 1727C1026 1727 1025 1728 1024 1728C1024 1738 1025 1813 1023 1816C1020 1803 1021 1744 1021 1727C1011 1724 1008 1722 1004 1713L1003 1712C910 1708 827 1686 742 1647C731 1642 720 1636 709 1630C702 1626 678 1611 671 1610C653 1608 626 1609 607 1609C606 1632 608 1827 605 1832L604 1830L605 1832L606 1831L604 1830L606 1830L604 1829C602 1809 604 1775 603 1754L603 1609C504 1608 399 1609 298 1609C291 1623 288 1613 286 1632C285 1644 288 1695 284 1702C282 1684 283 1641 283 1621C265 1613 282 1610 255 1609C241 1609 180 1611 172 1608C177 1604 258 1606 272 1606C274 1602 282 1592 282 1592C284 1577 283 1559 283 1544C273 1543 263 1543 254 1542C256 1540 279 1540 283 1540C284 1496 283 1451 283 1406L286 1401C287 1416 286 1437 286 1453L287 1540C321 1539 364 1540 399 1540C458 1540 518 1540 577 1540C574 1538 571 1536 568 1533C550 1519 534 1502 517 1486C379 1345 292 1161 273 964C270 964 262 966 260 963C264 961 268 962 272 962C272 955 271 948 271 942C258 941 211 942 202 940C209 937 260 938 270 938C269 926 269 914 270 902C274 914 273 926 274 938L295 938L294 941C288 941 281 941 274 941C275 948 275 955 276 962L276 964L291 962C301 1024 318 1082 338 1141C343 1156 354 1186 362 1199L363 1199C365 1203 369 1212 372 1216C380 1236 392 1258 403 1277C441 1345 488 1407 543 1462C550 1469 575 1494 583 1499L583 1502C590 1508 597 1513 604 1519C606 1521 605 1522 606 1523L607 1522C611 1524 627 1537 629 1541L630 1542C624 1542 615 1542 610 1543C618 1544 626 1543 634 1544C642 1549 649 1554 657 1559C653 1565 654 1566 653 1572L659 1572C653 1574 635 1571 627 1573L629 1576C646 1575 663 1575 680 1575C693 1584 713 1598 727 1605C730 1607 729 1607 731 1610C735 1612 736 1613 739 1614L741 1613L739 1611L740 1610C744 1611 745 1611 749 1613C753 1615 766 1623 770 1624C774 1627 775 1627 779 1628C783 1631 786 1632 787 1635C789 1638 788 1637 792 1638L794 1637C798 1641 817 1647 824 1649C887 1671 954 1683 1021 1685C1021 1668 1021 1650 1021 1633C1023 1631 1022 1617 1023 1611C1025 1618 1024 1626 1025 1633L1025 1635C1025 1651 1024 1668 1025 1685C1065 1684 1101 1682 1141 1675C1144 1674 1157 1672 1160 1670C1162 1670 1162 1671 1164 1670C1163 1667 1166 1664 1168 1660L1166 1660L1172 1649C1170 1646 1171 1646 1168 1645C1173 1636 1183 1617 1186 1609C1187 1607 1187 1607 1188 1605C1193 1597 1199 1581 1205 1575L1205 1572C1209 1563 1212 1552 1218 1545C1220 1543 1223 1543 1227 1543C1224 1542 1223 1542 1220 1541C1223 1540 1226 1540 1228 1540L1230 1538L1231 1540L1233 1540C1236 1535 1242 1522 1244 1517C1246 1512 1250 1503 1252 1498C1255 1499 1258 1500 1261 1502C1268 1488 1275 1474 1281 1460C1333 1346 1362 1222 1382 1098C1383 1091 1390 1052 1388 1048C1386 1047 1384 1046 1382 1044L1384 1044C1387 1045 1387 1045 1390 1045C1391 1042 1390 1042 1392 1040L1393 1041C1393 1043 1393 1045 1393 1047L1396 1048C1398 1048 1399 1047 1401 1048L1402 1051C1405 1053 1431 1065 1435 1066C1436 1064 1436 1063 1437 1061L1438 1062L1438 1066C1440 1069 1468 1083 1472 1083L1473 1079L1475 1079L1475 1080C1475 1083 1475 1084 1476 1086C1482 1089 1496 1097 1502 1097C1505 1096 1504 1096 1506 1096C1507 1098 1507 1099 1507 1101C1510 1103 1523 1109 1527 1111C1530 1110 1531 1109 1533 1110C1533 1113 1533 1112 1534 1114C1538 1117 1553 1124 1559 1126C1560 1124 1559 1124 1561 1122L1562 1123L1562 1126C1563 1129 1565 1129 1569 1131L1567 1133L1559 1130L1559 1134C1556 1139 1550 1164 1548 1172C1541 1195 1534 1218 1525 1240C1491 1335 1441 1425 1383 1508C1379 1514 1363 1539 1357 1540C1354 1540 1348 1540 1343 1539C1341 1541 1341 1541 1340 1543L1320 1570L1317 1569C1311 1573 1303 1572 1296 1571L1295 1573C1299 1576 1301 1574 1303 1575C1306 1575 1309 1575 1311 1576L1313 1578C1319 1574 1326 1575 1334 1576L1338 1576L1339 1575L1352 1575C1346 1583 1339 1593 1334 1601C1337 1599 1342 1593 1345 1589L1356 1575L1368 1575C1372 1575 1378 1575 1382 1576L1386 1578C1390 1576 1390 1576 1394 1575C1398 1572 1400 1573 1406 1572L1414 1572L1413 1571C1411 1568 1411 1566 1411 1561C1418 1556 1426 1550 1433 1543L1458 1543C1452 1542 1445 1543 1441 1541L1442 1540C1441 1540 1442 1540 1440 1539C1442 1537 1465 1516 1469 1513C1471 1512 1472 1511 1473 1510C1476 1504 1504 1479 1511 1472C1535 1447 1557 1421 1579 1394C1673 1272 1735 1128 1760 976C1765 946 1766 914 1770 885C1773 888 1777 892 1781 895C1784 898 1783 901 1784 907C1784 902 1785 887 1785 882C1783 881 1780 882 1775 879z"/><path d="M276 964L291 962C301 1024 318 1082 338 1141C343 1156 354 1186 362 1199L363 1199C365 1203 369 1212 372 1216C380 1236 392 1258 403 1277C441 1345 488 1407 543 1462C550 1469 575 1494 583 1499L583 1502C590 1508 597 1513 604 1519L603 1521C599 1540 601 1528 592 1540L581 1540C573 1533 565 1527 557 1520C430 1405 340 1255 298 1090C289 1054 278 1000 276 964z"/><path d="M362 1199L363 1199C365 1203 369 1212 372 1216C380 1236 392 1258 403 1277C441 1345 488 1407 543 1462C550 1469 575 1494 583 1499L583 1502C499 1433 399 1300 362 1199z"/><path d="M1474 1544C1482 1543 1501 1543 1510 1543L1567 1543C1629 1543 1697 1542 1759 1544C1759 1560 1759 1576 1759 1593C1752 1597 1751 1598 1747 1606L1474 1606C1474 1595 1474 1585 1474 1575C1485 1575 1567 1577 1573 1573C1561 1568 1481 1575 1474 1570L1473 1569C1474 1561 1474 1553 1474 1544z"/><path d="M1770 885C1773 888 1777 892 1781 895C1784 898 1783 901 1784 907C1784 934 1778 982 1773 1009C1745 1188 1662 1353 1536 1482C1517 1501 1494 1522 1474 1539L1473 1510C1476 1504 1504 1479 1511 1472C1535 1447 1557 1421 1579 1394C1673 1272 1735 1128 1760 976C1765 946 1766 914 1770 885z"/><path d="M1475 1089C1481 1092 1487 1095 1493 1098C1488 1112 1485 1129 1482 1144C1465 1215 1443 1290 1413 1357C1415 1363 1411 1363 1412 1368L1413 1369L1413 1368L1414 1368C1415 1369 1414 1369 1416 1370L1417 1370C1413 1379 1404 1397 1399 1406C1375 1452 1348 1497 1318 1540C1323 1540 1332 1540 1337 1541C1334 1542 1334 1542 1334 1543C1327 1543 1318 1542 1314 1546L1311 1544C1305 1543 1301 1543 1295 1544C1290 1551 1282 1564 1276 1571L1274 1570L1290 1544L1276 1543L1269 1544L1268 1543C1266 1542 1264 1541 1262 1540C1265 1540 1267 1540 1271 1540C1282 1533 1325 1427 1335 1408C1335 1411 1335 1411 1336 1414C1339 1413 1339 1413 1341 1410L1343 1411C1324 1456 1302 1499 1278 1540L1291 1540C1323 1491 1350 1434 1374 1381L1377 1381C1379 1383 1379 1383 1379 1387L1382 1386C1387 1373 1393 1360 1398 1347C1434 1264 1455 1177 1475 1089z"/><path d="M1413 1357C1415 1363 1411 1363 1412 1368L1413 1369L1413 1368L1414 1368C1415 1369 1414 1369 1416 1370L1417 1370C1413 1379 1404 1397 1399 1406C1375 1452 1348 1497 1318 1540C1323 1540 1332 1540 1337 1541C1334 1542 1334 1542 1334 1543C1327 1543 1318 1542 1314 1546L1311 1544C1305 1543 1301 1543 1295 1544C1290 1551 1282 1564 1276 1571L1274 1570L1290 1544L1276 1543L1269 1544L1268 1543C1266 1542 1264 1541 1262 1540C1265 1540 1267 1540 1271 1540C1282 1533 1325 1427 1335 1408C1335 1411 1335 1411 1336 1414C1339 1413 1339 1413 1341 1410L1343 1411C1324 1456 1302 1499 1278 1540L1291 1540C1323 1491 1350 1434 1374 1381L1377 1381C1379 1383 1379 1383 1379 1387L1382 1386C1358 1441 1328 1489 1298 1540L1313 1540C1320 1531 1329 1515 1336 1505C1357 1471 1377 1435 1394 1398C1400 1385 1407 1371 1413 1357z"/><path d="M1400 1054C1409 1058 1418 1062 1427 1066C1423 1073 1407 1168 1404 1183C1392 1235 1378 1286 1361 1336C1356 1352 1350 1367 1344 1383C1342 1388 1336 1404 1335 1408C1325 1427 1282 1533 1271 1540C1267 1540 1265 1540 1262 1540L1256 1540C1256 1540 1256 1539 1256 1539C1262 1529 1275 1502 1280 1493C1285 1481 1287 1476 1291 1468C1334 1368 1365 1264 1384 1158C1390 1126 1397 1086 1400 1054z"/><path d="M1437 1071C1445 1076 1454 1079 1463 1084L1462 1087C1460 1090 1459 1097 1458 1101C1439 1199 1411 1288 1374 1381C1350 1434 1323 1491 1291 1540L1278 1540C1302 1499 1324 1456 1343 1411C1351 1394 1358 1373 1365 1355C1389 1287 1409 1217 1423 1146C1428 1123 1434 1095 1437 1071z"/><path d="M1539 1120C1544 1122 1556 1127 1559 1130L1559 1134C1556 1139 1550 1164 1548 1172C1541 1195 1534 1218 1525 1240C1491 1335 1441 1425 1383 1508C1379 1514 1363 1539 1357 1540C1354 1540 1348 1540 1343 1539C1351 1531 1375 1492 1383 1480C1434 1401 1476 1316 1507 1227C1519 1191 1528 1157 1539 1120z"/><path d="M1506 1104L1529 1115C1515 1158 1503 1204 1488 1247C1458 1330 1420 1409 1374 1484C1362 1503 1349 1523 1337 1541C1332 1540 1323 1540 1318 1540C1348 1497 1375 1452 1399 1406C1404 1397 1413 1379 1417 1370C1439 1321 1459 1271 1475 1220C1487 1180 1495 1145 1506 1104z"/><path d="M677 1609C694 1610 715 1608 731 1610C735 1612 736 1613 739 1614C817 1662 935 1684 1026 1688C1024 1689 1022 1689 1021 1690C1009 1695 1008 1697 1003 1708C881 1705 782 1668 677 1609z"/><path d="M1168 1660C1178 1645 1188 1629 1198 1614C1200 1611 1203 1608 1207 1610C1205 1614 1198 1627 1198 1630C1201 1626 1207 1615 1211 1609C1251 1609 1292 1610 1331 1609C1273 1638 1227 1655 1164 1670C1163 1667 1166 1664 1168 1660z"/><path d="M1339 1575L1352 1575C1346 1583 1339 1593 1334 1601C1331 1603 1333 1602 1331 1606C1323 1605 1303 1606 1294 1606L1214 1606C1220 1596 1227 1585 1233 1575L1253 1575C1249 1582 1245 1588 1242 1595C1248 1588 1251 1583 1256 1575C1272 1575 1288 1576 1303 1575C1306 1575 1309 1575 1311 1576L1313 1578C1319 1574 1326 1575 1334 1576L1338 1576L1339 1575z"/><path d="M1334 1576L1338 1576C1335 1581 1321 1598 1317 1600C1320 1594 1329 1582 1334 1576z"/><path d="M1300 1592L1311 1576L1313 1578C1310 1583 1304 1588 1300 1592z"/><path d="M629 1576C646 1575 663 1575 680 1575C693 1584 713 1598 727 1605C719 1606 683 1606 673 1605C658 1596 643 1587 628 1577L629 1576z"/><path d="M1463 1084C1464 1085 1470 1087 1471 1087C1464 1116 1458 1145 1451 1175C1434 1241 1411 1306 1384 1369C1383 1367 1384 1365 1385 1364C1417 1282 1441 1198 1458 1113C1459 1109 1463 1090 1462 1087L1463 1084z"/><path d="M1427 1066C1431 1068 1432 1068 1434 1071C1432 1087 1425 1117 1422 1134C1409 1200 1392 1264 1370 1328L1369 1330C1367 1325 1379 1293 1381 1285C1396 1231 1409 1176 1419 1120C1421 1108 1427 1077 1427 1066z"/><path d="M610 1543C618 1544 626 1543 634 1544C642 1549 649 1554 657 1559C653 1565 654 1566 653 1572C643 1571 632 1572 622 1572C617 1568 612 1564 607 1561C606 1554 604 1546 610 1543z"/><path d="M1394 1575L1412 1575C1410 1580 1410 1581 1411 1586C1402 1592 1391 1600 1382 1605C1377 1604 1374 1604 1369 1605C1360 1605 1360 1603 1359 1596C1368 1591 1377 1585 1386 1578C1390 1576 1390 1576 1394 1575z"/><path d="M1458 1543C1461 1543 1464 1544 1467 1543L1467 1545C1455 1554 1444 1563 1432 1572L1414 1572L1413 1571C1411 1568 1411 1566 1411 1561C1418 1556 1426 1550 1433 1543L1458 1543z"/><path d="M1314 1546C1318 1542 1327 1543 1334 1543C1332 1550 1321 1562 1317 1569C1311 1573 1303 1572 1296 1571C1302 1563 1308 1554 1314 1546z"/><path d="M1268 1543L1269 1544C1269 1549 1258 1566 1255 1572L1236 1571C1241 1562 1247 1553 1253 1543L1268 1543z"/><path d="M1295 1544C1301 1543 1305 1543 1311 1544C1306 1551 1297 1565 1293 1572C1288 1572 1281 1572 1276 1571C1282 1564 1290 1551 1295 1544z"/><path d="M1469 1513C1471 1518 1470 1534 1470 1540L1442 1540C1441 1540 1442 1540 1440 1539C1442 1537 1465 1516 1469 1513z"/><path d="M1276 1543L1290 1544L1274 1570C1271 1573 1263 1572 1259 1572C1264 1562 1270 1553 1276 1543z"/><path d="M1469 1547L1470 1548L1470 1572C1459 1572 1448 1572 1437 1571C1447 1565 1459 1555 1469 1547z"/><path d="M1368 1575C1372 1575 1378 1575 1382 1576C1372 1583 1363 1589 1353 1595C1350 1591 1350 1591 1345 1589L1356 1575L1368 1575z"/><path d="M1186 1609C1189 1609 1192 1609 1194 1610C1191 1618 1177 1642 1172 1649C1170 1646 1171 1646 1168 1645C1173 1636 1183 1617 1186 1609z"/><path d="M1227 1543C1225 1548 1217 1567 1213 1571C1212 1572 1206 1572 1205 1572C1209 1563 1212 1552 1218 1545C1220 1543 1223 1543 1227 1543z"/><path d="M1205 1575L1211 1576C1211 1580 1198 1609 1191 1606C1192 1606 1188 1605 1188 1605C1193 1597 1199 1581 1205 1575z"/><path d="M606 1523L607 1522C611 1524 627 1537 629 1541C623 1540 613 1540 607 1540C607 1535 606 1529 606 1523z"/><path d="M1252 1498C1255 1499 1258 1500 1261 1502C1259 1505 1252 1520 1250 1521C1249 1518 1247 1517 1244 1517C1246 1512 1250 1503 1252 1498z"/><path d="M1244 1517C1247 1517 1249 1518 1250 1521C1247 1527 1244 1538 1238 1540L1233 1540C1236 1535 1242 1522 1244 1517z"/><path d="M741 1613L739 1611L740 1610C744 1611 745 1611 749 1613C753 1615 766 1623 770 1624C774 1627 775 1627 779 1628C783 1631 786 1632 787 1635C771 1629 757 1622 741 1613z"/><path d="M1345 1589C1350 1591 1350 1591 1353 1595C1347 1600 1339 1605 1331 1606C1333 1602 1331 1603 1334 1601C1337 1599 1342 1593 1345 1589z"/><path d="M1342 1606C1347 1603 1353 1599 1359 1596C1360 1603 1360 1605 1369 1605C1374 1604 1377 1604 1382 1605C1376 1606 1349 1606 1342 1606z"/><path d="M1467 1543C1470 1544 1471 1545 1474 1544C1474 1553 1474 1561 1473 1569C1472 1570 1473 1570 1471 1570C1469 1563 1472 1555 1470 1548L1469 1547L1467 1545L1467 1543z"/><path d="M1412 1575L1428 1575C1423 1578 1416 1583 1411 1586C1410 1581 1410 1580 1412 1575z"/><path d="M603 1521C604 1527 604 1534 604 1540L592 1540C601 1528 599 1540 603 1521z"/><path d="M287 1543C300 1543 314 1543 327 1543C411 1544 496 1542 580 1544C587 1550 606 1560 604 1570C599 1574 490 1570 473 1572C478 1575 497 1575 504 1575C535 1576 572 1575 604 1575L603 1606L298 1606C296 1599 295 1598 289 1594L288 1593C285 1585 286 1554 287 1543z"/><path d="M1020 1688C1051 1686 1082 1688 1114 1682C1120 1681 1151 1675 1155 1676L1153 1679L1155 1679C1157 1677 1158 1676 1160 1674C1170 1671 1180 1670 1190 1667C1221 1659 1252 1648 1282 1636C1301 1628 1318 1618 1337 1610C1339 1609 1352 1609 1355 1609C1356 1611 1359 1616 1360 1618C1263 1675 1153 1706 1041 1709C1038 1695 1032 1693 1020 1688z"/><path d="M1392 1050L1396 1052C1397 1053 1398 1055 1397 1057C1378 1200 1344 1342 1284 1474C1278 1488 1258 1532 1249 1541C1246 1541 1246 1541 1243 1539C1246 1533 1259 1510 1263 1503C1275 1481 1285 1458 1295 1435C1341 1325 1368 1207 1386 1089C1389 1076 1391 1063 1392 1050z"/><path d="M1433 1575C1438 1575 1464 1575 1470 1575C1470 1585 1470 1596 1470 1606L1427 1605L1387 1606C1400 1599 1421 1584 1433 1575z"/><path d="M1443 1291C1457 1250 1470 1208 1480 1165C1482 1155 1485 1144 1487 1133C1489 1124 1491 1108 1494 1100C1498 1099 1502 1101 1503 1105C1500 1115 1497 1126 1494 1136C1481 1188 1465 1243 1446 1292L1443 1291z"/><path d="M607 1575L621 1575C630 1582 639 1588 648 1594C655 1598 661 1602 668 1606C649 1606 630 1606 611 1605C610 1605 609 1605 608 1605C605 1600 606 1582 607 1575z"/><path d="M648 1594C655 1598 661 1602 668 1606C649 1606 630 1606 611 1605C619 1604 643 1606 647 1603C647 1600 648 1597 648 1594z"/><path d="M1459 1330C1478 1286 1494 1241 1508 1195C1513 1178 1518 1160 1523 1143C1525 1135 1528 1124 1531 1117C1534 1116 1533 1116 1535 1118C1540 1135 1471 1310 1460 1332L1459 1330z"/><path d="M1224 1561C1226 1557 1230 1547 1233 1544C1237 1544 1236 1543 1238 1545L1236 1550C1240 1548 1241 1545 1246 1544L1247 1545C1245 1553 1236 1565 1231 1571C1228 1572 1222 1572 1218 1572L1224 1561z"/><path d="M1224 1561C1231 1564 1230 1564 1231 1571C1228 1572 1222 1572 1218 1572L1224 1561z"/><path d="M1213 1582C1217 1583 1220 1584 1222 1587C1218 1594 1213 1603 1206 1606L1204 1605C1203 1599 1210 1588 1213 1582z"/><path d="M1443 1291L1446 1292C1441 1304 1422 1351 1417 1359L1416 1358C1424 1340 1436 1310 1443 1291z"/><path d="M1019 1693C1021 1695 1022 1699 1022 1701C1023 1710 1014 1708 1010 1708L1008 1707L1008 1705C1010 1699 1014 1696 1019 1693z"/><path d="M585 1544C591 1543 598 1543 604 1543L604 1558C599 1555 589 1547 585 1544z"/><path d="M1025 1693C1034 1697 1035 1699 1038 1708L1025 1709L1025 1693z"/><path d="M1007 1712L1021 1711L1021 1724C1013 1722 1011 1718 1007 1712z"/><path d="M1025 1711C1029 1711 1032 1711 1036 1713C1036 1716 1035 1716 1033 1720C1029 1722 1029 1723 1026 1723C1024 1720 1024 1715 1025 1711z"/><path d="M1213 1582C1218 1573 1220 1575 1230 1575C1229 1577 1223 1586 1222 1587C1220 1584 1217 1583 1213 1582z"/><path d="M1459 1330L1460 1332C1454 1346 1447 1360 1440 1374C1439 1372 1440 1367 1441 1366C1449 1354 1452 1342 1459 1330z"/><path d="M1355 1609L1374 1609C1370 1612 1364 1616 1360 1618C1359 1616 1356 1611 1355 1609z"/><path d="M515 968C515 966 515 964 516 961C520 969 520 967 528 966L531 968C533 971 537 1021 538 1029C545 1093 557 1157 574 1220C605 1333 642 1416 701 1515L694 1521C696 1525 705 1537 706 1540L706 1542C707 1543 708 1544 709 1544C715 1551 724 1569 732 1572C733 1572 737 1572 738 1572C740 1576 745 1573 744 1579L753 1593L748 1599C752 1603 752 1604 757 1607C762 1607 763 1606 766 1610C769 1616 777 1624 779 1628C775 1627 774 1627 770 1624C766 1623 753 1615 749 1613C750 1613 751 1612 752 1611C753 1607 753 1609 751 1605L749 1606C747 1606 743 1605 741 1605C728 1599 703 1584 693 1576L693 1575C692 1572 692 1573 688 1572L725 1572C719 1562 711 1553 705 1544L690 1543C682 1541 659 1544 653 1541L654 1540C640 1538 638 1533 627 1523C622 1519 614 1511 609 1505C605 1500 584 1478 578 1472C561 1454 545 1434 530 1414C429 1288 360 1139 327 981C362 990 416 987 452 983L451 980C471 977 496 974 515 968z"/><path d="M531 968C533 971 537 1021 538 1029C545 1093 557 1157 574 1220C605 1333 642 1416 701 1515L694 1521C678 1496 662 1471 649 1444C572 1297 531 1138 518 972C522 971 527 969 531 968z"/><path d="M515 968C515 966 515 964 516 961C520 969 520 967 528 966L531 968C527 969 522 971 518 972C531 1138 572 1297 649 1444C662 1471 678 1496 694 1521C696 1525 705 1537 706 1540L706 1542C707 1543 708 1544 709 1544C715 1551 724 1569 732 1572C733 1572 737 1572 738 1572C740 1576 745 1573 744 1579L753 1593L748 1599C752 1603 752 1604 757 1607C762 1607 763 1606 766 1610C769 1616 777 1624 779 1628C775 1627 774 1627 770 1624C766 1623 753 1615 749 1613C750 1613 751 1612 752 1611C753 1607 753 1609 751 1605L749 1606C747 1606 743 1605 741 1605C728 1599 703 1584 693 1576L693 1575C692 1572 692 1573 688 1572L725 1572C719 1562 711 1553 705 1544L690 1543C682 1541 659 1544 653 1541L654 1540C670 1540 687 1540 703 1540C610 1401 550 1243 527 1078C522 1046 516 1005 515 973C492 978 476 981 452 983L451 980C471 977 496 974 515 968z"/><path d="M693 1576C704 1575 716 1575 727 1575C732 1581 748 1600 749 1606C747 1606 743 1605 741 1605C728 1599 703 1584 693 1576z"/><path d="M748 1599C745 1594 733 1580 734 1576C740 1575 740 1575 744 1579L753 1593L748 1599z"/><path d="M770 1624C766 1619 759 1616 757 1611C760 1609 761 1610 766 1610C769 1616 777 1624 779 1628C775 1627 774 1627 770 1624z"/><path d="M964 1374C959 1343 958 1290 956 1257L947 1040C946 1016 945 993 944 969C944 962 943 940 944 934C944 935 948 941 948 941C959 947 974 955 984 960C989 958 982 957 988 958C989 960 989 961 989 963C993 966 993 967 999 966C1002 970 1005 973 1009 975C1015 977 1032 988 1037 989L1037 987C1037 985 1037 984 1038 982L1039 982L1039 991C1042 993 1059 1003 1061 1003L1063 1001C1066 1004 1069 1009 1073 1010C1074 1008 1074 1009 1074 1006L1075 1007C1076 1010 1075 1012 1078 1013C1083 1016 1107 1030 1110 1031C1113 1027 1109 1025 1113 1023C1114 1027 1114 1028 1113 1032C1113 1034 1118 1034 1120 1038L1119 1039L1115 1037L1114 1037C1112 1043 1109 1101 1108 1112C1104 1175 1098 1237 1093 1300C1091 1318 1088 1362 1084 1378C1082 1375 1082 1372 1079 1368C1077 1371 1078 1372 1078 1376L1077 1370C1071 1409 1070 1449 1066 1488C1065 1496 1064 1535 1061 1539L1057 1540C1053 1540 1050 1540 1048 1538C1047 1524 1050 1496 1050 1481C1053 1436 1055 1392 1058 1347C1057 1350 1057 1354 1053 1355C1051 1352 1051 1351 1050 1348L1045 1473C1044 1494 1044 1520 1042 1540L1026 1540C1023 1529 1028 1499 1025 1490C1023 1504 1026 1531 1024 1542L1022 1542L1021 1542C1024 1536 1023 1507 1022 1499L1022 1499C1020 1511 1024 1525 1021 1537L1020 1539C1018 1540 1018 1540 1016 1540C1012 1540 1008 1540 1005 1540C1004 1522 1003 1503 1003 1485C1002 1436 1001 1388 1001 1339C1000 1311 1001 1274 1000 1246C999 1257 1001 1319 999 1323C997 1321 998 1321 998 1318C997 1331 998 1347 997 1360C996 1350 996 1326 995 1318C994 1326 995 1353 994 1358C991 1353 994 1351 992 1343C991 1408 999 1476 1000 1541C995 1540 990 1540 985 1540L983 1539C981 1534 980 1505 979 1498C976 1462 974 1426 972 1390C971 1375 972 1353 970 1338L967 1337C967 1343 969 1355 965 1359C964 1364 964 1370 964 1374z"/><path d="M959 950C969 955 976 960 986 965C986 1032 988 1102 989 1170C989 1226 989 1286 992 1343C991 1408 999 1476 1000 1541C995 1540 990 1540 985 1540L983 1539C981 1534 980 1505 979 1498C976 1462 974 1426 972 1390C971 1375 972 1353 970 1338C964 1209 961 1080 959 950z"/><path d="M999 973C1007 977 1016 983 1024 987L1021 1217C1021 1241 1021 1265 1020 1289C1020 1297 1020 1313 1020 1321C1022 1333 1021 1352 1021 1364C1022 1353 1021 1338 1023 1331C1024 1339 1024 1347 1024 1355C1026 1350 1025 1336 1026 1329L1026 1328L1026 1329C1027 1337 1025 1359 1028 1364L1028 1363L1027 1476C1027 1487 1027 1533 1026 1540C1023 1529 1028 1499 1025 1490C1023 1504 1026 1531 1024 1542L1022 1542L1021 1542C1024 1536 1023 1507 1022 1499L1022 1499C1020 1511 1024 1525 1021 1537L1020 1539C1018 1540 1018 1540 1016 1540C1012 1540 1008 1540 1005 1540C1004 1522 1003 1503 1003 1485C1002 1436 1001 1388 1001 1339C1000 1311 1001 1274 1000 1246C1001 1156 1000 1063 999 973z"/><path d="M1020 1321C1022 1333 1021 1352 1021 1364C1022 1353 1021 1338 1023 1331C1024 1339 1024 1347 1024 1355C1026 1350 1025 1336 1026 1329L1026 1328L1026 1329C1027 1337 1025 1359 1028 1364L1028 1363L1027 1476C1027 1487 1027 1533 1026 1540C1023 1529 1028 1499 1025 1490C1023 1504 1026 1531 1024 1542L1022 1542L1021 1542C1024 1536 1023 1507 1022 1499L1022 1499C1020 1511 1024 1525 1021 1537C1020 1525 1021 1507 1020 1495L1020 1418C1019 1392 1018 1345 1020 1321z"/><path d="M1039 995C1047 999 1054 1003 1062 1008C1061 1055 1059 1109 1057 1157C1055 1221 1053 1284 1050 1348L1045 1473C1044 1494 1044 1520 1042 1540L1026 1540C1027 1533 1027 1487 1027 1476L1028 1363C1033 1265 1034 1165 1037 1067C1038 1043 1039 1019 1039 995z"/><path d="M1075 1015C1082 1019 1092 1025 1099 1028C1096 1114 1090 1199 1084 1285C1082 1312 1078 1344 1077 1370C1071 1409 1070 1449 1066 1488C1065 1496 1064 1535 1061 1539L1057 1540C1053 1540 1050 1540 1048 1538C1047 1524 1050 1496 1050 1481C1053 1436 1055 1392 1058 1347C1059 1323 1061 1300 1063 1276L1072 1095C1073 1069 1075 1041 1075 1015z"/><path d="M947 944L956 948C955 1002 958 1059 959 1113C960 1156 961 1198 963 1240C964 1259 964 1277 965 1297L962 1301C960 1283 960 1259 959 1240L955 1150C952 1082 948 1012 947 944z"/><path d="M1027 988C1030 990 1033 992 1036 993C1035 1009 1036 1028 1035 1044C1034 1100 1032 1156 1029 1212C1024 1219 1030 1244 1024 1251C1025 1164 1027 1075 1027 988z"/><path d="M989 966C992 968 993 969 997 972C998 978 997 992 997 999C996 1012 996 1025 996 1039C997 1094 997 1150 996 1205C996 1203 996 1200 995 1198L996 1199L995 1198C995 1208 995 1209 993 1218L990 1031C989 1009 990 988 989 966z"/><path d="M1024 1251C1030 1244 1024 1219 1029 1212C1030 1239 1026 1272 1027 1300C1027 1309 1026 1319 1026 1328L1026 1329C1025 1336 1026 1350 1024 1355C1024 1347 1024 1339 1023 1331C1024 1304 1023 1277 1024 1251z"/><path d="M993 1218C995 1209 995 1208 995 1198L996 1199L995 1198C996 1200 996 1203 996 1205L997 1207C996 1220 997 1308 996 1311L995 1307C993 1278 993 1247 993 1218z"/><path d="M997 1207C999 1241 996 1283 998 1318C997 1331 998 1347 997 1360C996 1350 996 1326 995 1318L995 1307L996 1311C997 1308 996 1220 997 1207z"/><path d="M965 1297C966 1305 966 1327 967 1337C967 1343 969 1355 965 1359C965 1343 963 1317 962 1301L965 1297z"/><path d="M1065 1009L1073 1014C1069 1113 1063 1212 1057 1311C1056 1308 1056 1306 1055 1303L1065 1009z"/><path d="M1102 1030C1105 1031 1108 1033 1110 1035C1109 1060 1089 1328 1085 1334C1085 1336 1085 1338 1084 1340L1083 1341C1081 1329 1090 1264 1090 1248C1093 1176 1101 1102 1102 1030z"/><path d="M1055 1303C1056 1306 1056 1308 1057 1311C1058 1322 1055 1338 1055 1350C1055 1350 1054 1351 1054 1351C1052 1347 1055 1311 1055 1303z"/><path d="M910 866C945 882 986 905 1021 923L1022 921L1076 948C1086 953 1100 960 1109 964L1109 966L1111 968L1114 969C1133 977 1152 987 1170 997L1173 998C1178 1001 1182 1003 1187 1006C1185 1010 1185 1012 1184 1016C1175 1019 1148 1029 1142 1027C1139 1024 1139 1023 1138 1019C1132 1025 1140 1028 1131 1034L1131 1036L1135 1037C1135 1048 1132 1070 1131 1083C1128 1123 1125 1163 1121 1203C1111 1312 1099 1431 1084 1540L1068 1540C1074 1491 1078 1441 1083 1392C1084 1388 1085 1382 1084 1378C1088 1362 1091 1318 1093 1300C1098 1237 1104 1175 1108 1112C1109 1101 1112 1043 1114 1037L1115 1037L1119 1039L1120 1038C1118 1034 1113 1034 1113 1032C1114 1028 1114 1027 1113 1023C1109 1025 1113 1027 1110 1031C1107 1030 1083 1016 1078 1013C1075 1012 1076 1010 1075 1007L1074 1006C1074 1009 1074 1008 1073 1010C1069 1009 1066 1004 1063 1001L1061 1003C1059 1003 1042 993 1039 991L1039 982L1038 982C1037 984 1037 985 1037 987L1037 989C1032 988 1015 977 1009 975C1005 973 1002 970 999 966C993 967 993 966 989 963C989 961 989 960 988 958C982 957 989 958 984 960C974 955 959 947 948 941C948 941 944 935 944 934C943 940 944 962 944 969C945 993 946 1016 947 1040L956 1257C958 1290 959 1343 964 1374C963 1383 965 1405 966 1415C969 1445 971 1475 974 1504C975 1511 977 1535 977 1541L975 1540C971 1540 961 1540 956 1540C954 1511 947 1475 943 1446C937 1399 932 1353 928 1307C915 1160 910 1013 910 866z"/><path d="M1021 923L1022 921L1076 948C1086 953 1100 960 1109 964L1109 966C1080 952 1050 937 1021 923z"/><path d="M1111 968L1114 969C1114 975 1114 978 1114 984L1112 985L1113 985L1114 983L1113 986L1113 986C1111 980 1111 975 1111 968z"/><path d="M1170 997L1173 998C1172 1002 1172 1010 1170 1012C1169 1007 1169 1002 1170 997z"/><path d="M1373 985C1384 990 1421 1007 1429 1013C1429 1015 1429 1016 1429 1019L1430 1020C1431 1016 1431 1016 1433 1014L1435 1016C1436 1020 1435 1024 1434 1029L1435 1029C1437 1027 1438 1021 1439 1017C1483 1040 1531 1059 1575 1083C1577 1086 1575 1088 1576 1093C1579 1093 1576 1089 1580 1086C1587 1088 1598 1094 1605 1097C1578 1203 1536 1304 1479 1396C1463 1423 1442 1455 1423 1480C1421 1477 1419 1475 1416 1473C1466 1399 1508 1320 1540 1236C1551 1204 1562 1168 1572 1135C1576 1138 1579 1139 1583 1140C1582 1137 1576 1135 1573 1133C1573 1129 1574 1127 1574 1124C1570 1124 1573 1128 1569 1131C1565 1129 1563 1129 1562 1126L1562 1123L1561 1122C1559 1124 1560 1124 1559 1126C1553 1124 1538 1117 1534 1114C1533 1112 1533 1113 1533 1110C1531 1109 1530 1110 1527 1111C1523 1109 1510 1103 1507 1101C1507 1099 1507 1098 1506 1096C1504 1096 1505 1096 1502 1097C1496 1097 1482 1089 1476 1086C1475 1084 1475 1083 1475 1080L1475 1079L1473 1079L1472 1083C1468 1083 1440 1069 1438 1066L1438 1062L1437 1061C1436 1063 1436 1064 1435 1066C1431 1065 1405 1053 1402 1051L1401 1048C1399 1047 1398 1048 1396 1048L1393 1047C1393 1045 1393 1043 1393 1041L1392 1040C1390 1042 1391 1042 1390 1045C1387 1045 1387 1045 1384 1044L1382 1044C1384 1046 1386 1047 1388 1048C1390 1052 1383 1091 1382 1098C1362 1222 1333 1346 1281 1460C1275 1474 1268 1488 1261 1502C1258 1500 1255 1499 1252 1498C1304 1377 1341 1249 1361 1118C1368 1077 1374 1026 1373 985z"/><path d="M757 1575C785 1575 815 1575 842 1575C847 1585 851 1596 856 1606C852 1606 847 1605 844 1607C849 1608 858 1608 860 1613L864 1613L867 1618C869 1617 871 1615 874 1613C882 1629 895 1659 903 1672C900 1658 882 1623 875 1609C881 1609 884 1609 889 1608L889 1607C884 1605 880 1606 874 1606C870 1596 865 1586 861 1575L940 1575C942 1585 944 1596 945 1606C939 1606 921 1605 915 1606L915 1607C919 1611 939 1609 946 1609C947 1618 948 1625 950 1633L951 1633C951 1624 950 1618 949 1609L960 1609C965 1620 967 1654 973 1659L966 1609L985 1609C986 1614 987 1619 989 1623C991 1620 989 1613 989 1609L1005 1609C1006 1617 1007 1627 1008 1634C1009 1624 1009 1619 1008 1609L1021 1609C1021 1615 1021 1628 1021 1633C1021 1650 1021 1668 1021 1685C954 1683 887 1671 824 1649C817 1647 798 1641 794 1637C786 1628 779 1619 772 1609C779 1609 785 1609 793 1609C785 1608 776 1610 770 1606C765 1600 752 1583 749 1576C752 1575 753 1575 757 1575z"/><path d="M770 1606C776 1605 798 1604 802 1607L802 1608C798 1609 797 1609 793 1609C785 1608 776 1610 770 1606z"/><path d="M864 1613L867 1618C870 1625 875 1636 876 1643C870 1632 865 1624 860 1613L864 1613z"/><path d="M1140 1035C1216 1014 1292 991 1368 967C1368 974 1368 976 1366 983L1366 984L1366 986C1366 986 1366 987 1367 988C1370 998 1365 1038 1363 1051C1347 1221 1295 1382 1230 1538L1228 1540C1226 1540 1223 1540 1220 1541C1219 1538 1231 1513 1232 1509C1241 1489 1249 1468 1257 1447C1307 1312 1349 1159 1355 1013C1355 1007 1358 988 1357 984C1353 984 1341 988 1337 990C1280 1006 1223 1023 1166 1041C1161 1043 1156 1045 1151 1048C1151 1050 1153 1059 1152 1060C1151 1073 1150 1085 1149 1097C1148 1122 1146 1147 1143 1172C1136 1263 1126 1354 1114 1445C1110 1475 1107 1510 1102 1540L1090 1540C1105 1430 1118 1320 1128 1210C1133 1156 1139 1090 1140 1035z"/><path d="M1101 1575C1133 1575 1165 1575 1197 1576C1195 1581 1185 1601 1184 1606C1184 1607 1183 1609 1182 1609C1178 1615 1160 1651 1161 1657C1163 1653 1166 1648 1168 1645C1171 1646 1170 1646 1172 1649L1166 1660L1168 1660C1166 1664 1163 1667 1164 1670C1162 1671 1162 1670 1160 1670C1157 1672 1144 1674 1141 1675C1101 1682 1065 1684 1025 1685C1024 1668 1025 1651 1025 1635C1026 1626 1021 1605 1036 1610C1037 1612 1037 1617 1036 1620C1037 1624 1036 1626 1038 1628L1038 1628C1039 1622 1040 1616 1041 1609C1046 1609 1052 1609 1056 1610C1056 1610 1057 1606 1057 1606C1058 1610 1058 1612 1059 1616C1059 1614 1059 1612 1060 1609L1076 1610C1075 1622 1073 1636 1072 1647L1074 1646C1074 1638 1078 1617 1080 1609L1093 1609C1092 1618 1091 1625 1091 1634L1091 1634C1094 1625 1095 1618 1096 1609C1103 1609 1135 1611 1139 1608L1139 1607C1136 1605 1104 1606 1097 1606C1098 1596 1099 1585 1101 1575z"/><path d="M1057 1606C1058 1610 1058 1612 1059 1616C1058 1623 1056 1647 1052 1653C1051 1648 1055 1617 1056 1610C1056 1610 1057 1606 1057 1606z"/><path d="M1182 1609C1176 1609 1163 1609 1157 1607L1158 1606C1168 1605 1174 1605 1184 1606C1184 1607 1183 1609 1182 1609z"/><path d="M1036 1620C1037 1624 1036 1626 1038 1628L1038 1628C1038 1634 1035 1655 1033 1660C1033 1652 1035 1629 1036 1620z"/><path d="M1166 1660L1168 1660C1166 1664 1163 1667 1164 1670C1162 1671 1162 1670 1160 1670L1166 1660z"/><path d="M1072 1647L1074 1646C1074 1650 1074 1654 1072 1658C1071 1655 1072 1650 1072 1647z"/><path d="M304 975C311 976 314 977 321 980C360 1149 419 1283 529 1421C529 1426 528 1425 524 1428C416 1301 326 1141 304 975z"/><path d="M1050 1348C1051 1351 1051 1352 1053 1355C1057 1354 1057 1350 1058 1347C1055 1392 1053 1436 1050 1481C1050 1496 1047 1524 1048 1538C1050 1540 1053 1540 1057 1540L1044 1541C1040 1541 1034 1541 1030 1542L1029 1544L1027 1544C1026 1548 1025 1569 1027 1572C1026 1572 1024 1573 1022 1573L1022 1574C1023 1574 1024 1574 1025 1574L1026 1574L1026 1574C1030 1575 1037 1575 1039 1577L1040 1578L1042 1576L1043 1578C1044 1585 1043 1598 1042 1605L1056 1606L1057 1606C1057 1606 1056 1610 1056 1610C1052 1609 1046 1609 1041 1609C1040 1616 1039 1622 1038 1628L1038 1628C1036 1626 1037 1624 1036 1620C1037 1617 1037 1612 1036 1610C1021 1605 1026 1626 1025 1635L1025 1633C1024 1626 1025 1618 1023 1611C1022 1617 1023 1631 1021 1633C1021 1628 1021 1615 1021 1609L1008 1609C1009 1619 1009 1624 1008 1634C1007 1627 1006 1617 1005 1609L989 1609C989 1613 991 1620 989 1623C987 1619 986 1614 985 1609L966 1609L973 1659C967 1654 965 1620 960 1609C959 1608 959 1608 959 1606C960 1602 959 1596 958 1591C959 1587 959 1581 958 1577L959 1577C961 1580 960 1581 963 1585C962 1580 961 1579 964 1576C968 1574 975 1575 980 1576L981 1575C982 1574 982 1573 982 1572L986 1572C991 1571 996 1571 1002 1572C1004 1573 1004 1573 1007 1572C1006 1563 1006 1554 1005 1546L1006 1544C1009 1543 1015 1543 1019 1543C1015 1543 1011 1542 1006 1542C1010 1540 1012 1541 1016 1540C1018 1540 1018 1540 1020 1539L1021 1537C1024 1525 1020 1511 1022 1499L1022 1499C1023 1507 1024 1536 1021 1542L1022 1542L1024 1542C1026 1531 1023 1504 1025 1490C1028 1499 1023 1529 1026 1540L1042 1540C1044 1520 1044 1494 1045 1473L1050 1348z"/><path d="M963 1585C962 1580 961 1579 964 1576C968 1574 975 1575 980 1576L981 1575C982 1585 983 1596 985 1606L966 1606C965 1599 964 1591 963 1585z"/><path d="M1019 1543C1022 1547 1021 1565 1021 1571C1016 1572 1011 1571 1007 1572C1006 1563 1006 1554 1005 1546L1006 1544C1009 1543 1015 1543 1019 1543z"/><path d="M1026 1574C1030 1575 1037 1575 1039 1577L1040 1578C1039 1587 1038 1596 1037 1605C1034 1606 1031 1606 1028 1604C1023 1599 1027 1585 1026 1574z"/><path d="M986 1575C991 1575 997 1575 1002 1575C1004 1585 1004 1596 1005 1606L989 1605C987 1597 986 1584 986 1575z"/><path d="M1007 1575C1011 1575 1016 1575 1021 1576C1021 1585 1021 1596 1021 1606L1008 1605C1007 1595 1007 1585 1007 1575z"/><path d="M299 938C315 937 331 938 346 938C408 938 470 936 532 939L531 942C526 944 522 945 517 946C466 959 350 967 299 953C299 949 299 945 299 941L299 938z"/><path d="M299 938C315 937 331 938 346 938C408 938 470 936 532 939L531 942C526 944 522 945 517 946L514 941L299 941L299 938z"/><path d="M514 941C520 941 526 941 531 942C526 944 522 945 517 946L514 941z"/><path d="M301 961C316 962 331 966 347 966C409 969 470 963 531 950C531 954 532 961 531 965L528 966C520 967 520 969 516 961C515 964 515 966 515 968C496 974 471 977 451 980C418 983 383 984 350 980C342 979 332 976 323 974C319 978 310 974 304 973C304 972 302 963 301 961z"/><path d="M941 440C941 429 942 370 939 363C939 363 939 363 939 363C941 356 967 342 975 338L976 342C977 346 973 421 973 431C970 432 965 436 963 438C960 442 947 446 943 452C943 453 941 453 940 454C940 450 941 447 940 444C926 441 895 447 884 444C889 440 931 440 941 440z"/><path d="M941 440C941 429 942 370 939 363C939 363 939 363 939 363C941 356 967 342 975 338L976 342C966 346 953 355 943 360C943 387 943 413 943 440C950 440 958 441 963 438C960 442 947 446 943 452C943 453 941 453 940 454C940 450 941 447 940 444C926 441 895 447 884 444C889 440 931 440 941 440z"/><path d="M702 887C702 879 701 823 702 819L704 819C706 823 705 878 705 886C727 881 751 873 772 868L772 871C774 876 773 893 773 900C756 909 720 924 707 933L705 932C707 927 709 933 709 927L705 925L702 926C701 915 702 902 702 891C687 894 672 899 657 902C652 903 645 906 640 907L640 906C643 902 693 890 702 887z"/><path d="M702 887C702 879 701 823 702 819L704 819C706 823 705 878 705 886C727 881 751 873 772 868L772 871C750 878 727 883 705 890C705 900 706 915 705 925L702 926C701 915 702 902 702 891C687 894 672 899 657 902C652 903 645 906 640 907L640 906C643 902 693 890 702 887z"/><path d="M1428 663C1428 652 1425 595 1426 588C1430 596 1431 651 1432 663C1475 661 1518 660 1562 660C1559 660 1558 660 1557 662C1549 666 1508 674 1497 676C1478 681 1457 686 1438 691C1437 686 1438 682 1436 678C1434 677 1433 676 1432 676L1429 679C1429 675 1429 670 1429 666C1417 666 1369 668 1362 666C1370 663 1416 664 1428 663z"/><path d="M1428 663C1428 652 1425 595 1426 588C1430 596 1431 651 1432 663C1475 661 1518 660 1562 660C1559 660 1558 660 1557 662C1543 663 1529 663 1515 663C1487 664 1460 665 1432 666C1432 668 1432 673 1432 676L1429 679C1429 675 1429 670 1429 666C1417 666 1369 668 1362 666C1370 663 1416 664 1428 663z"/><path d="M1420 944C1423 942 1423 942 1426 942C1426 951 1421 988 1420 997L1378 977C1379 971 1379 967 1380 962L1377 962L1376 959C1390 954 1405 948 1419 942L1420 944z"/><path d="M1419 942L1420 944C1410 948 1388 957 1380 962L1377 962L1376 959C1390 954 1405 948 1419 942z"/><path d="M1559 1130L1567 1133C1571 1140 1542 1219 1536 1233C1528 1255 1519 1277 1509 1299C1506 1305 1500 1317 1497 1323L1496 1320C1507 1297 1520 1266 1528 1241L1525 1240C1534 1218 1541 1195 1548 1172C1550 1164 1556 1139 1559 1134L1559 1130z"/><path d="M1559 1134C1561 1143 1533 1229 1528 1241L1525 1240C1534 1218 1541 1195 1548 1172C1550 1164 1556 1139 1559 1134z"/><path d="M690 1543L705 1544C711 1553 719 1562 725 1572L688 1572C679 1568 657 1550 650 1544L690 1543z"/><path d="M1429 710L1433 715C1432 720 1432 721 1433 726C1433 728 1434 733 1435 735C1438 786 1438 823 1435 874L1431 879C1431 886 1431 894 1431 900L1429 902L1428 897C1430 835 1430 773 1429 710z"/><path d="M1429 710L1433 715C1432 720 1432 721 1433 726L1431 879C1431 886 1431 894 1431 900L1429 902L1428 897C1430 835 1430 773 1429 710z"/><path d="M372 1216C372 1216 410 1284 414 1290C457 1361 509 1428 570 1485C579 1494 590 1505 601 1512L600 1513C593 1508 589 1505 583 1499C575 1494 550 1469 543 1462C488 1407 441 1345 403 1277C392 1258 380 1236 372 1216z"/><path d="M1379 1546C1387 1541 1413 1543 1423 1544C1411 1554 1400 1562 1388 1571L1378 1572L1359 1571C1363 1567 1377 1551 1379 1546z"/><path d="M924 856C939 865 966 879 979 888C980 892 983 894 983 897C981 898 981 898 977 897C970 895 928 871 918 866C920 860 920 860 924 856z"/><path d="M529 1421C554 1452 580 1482 609 1510L610 1511L608 1512C575 1481 554 1462 524 1428C528 1425 529 1426 529 1421z"/><path d="M988 1543L1000 1544C1003 1546 1002 1546 1005 1546C1006 1554 1006 1563 1007 1572C1004 1573 1004 1573 1002 1572C996 1571 991 1571 986 1572C985 1566 981 1549 985 1544L988 1543z"/><path d="M1000 1544C1003 1546 1002 1546 1005 1546C1006 1554 1006 1563 1007 1572C1004 1573 1004 1573 1002 1572C1003 1568 1001 1549 1000 1544z"/><path d="M1340 1543C1345 1543 1352 1543 1357 1544C1351 1553 1343 1562 1336 1571C1332 1571 1323 1572 1320 1570L1340 1543z"/><path d="M1022 913C1033 919 1107 959 1109 964C1109 964 1109 964 1109 964C1100 960 1086 953 1076 948L1022 921L1020 919C1020 917 1021 915 1022 913z"/><path d="M1054 1575L1057 1576C1060 1581 1057 1599 1056 1606L1042 1605C1043 1598 1044 1585 1043 1578L1044 1576C1047 1574 1050 1575 1054 1575z"/><path d="M1029 1544L1042 1544C1041 1553 1041 1562 1040 1572C1036 1572 1031 1572 1027 1572C1025 1569 1026 1548 1027 1544L1029 1544z"/><path d="M1402 1494L1408 1501C1400 1512 1392 1524 1383 1535C1380 1534 1378 1532 1376 1529C1385 1518 1394 1506 1402 1494z"/><path d="M979 888C993 896 1009 904 1022 913C1021 915 1020 917 1020 919C1006 912 991 905 977 897C981 898 981 898 983 897C983 894 980 892 979 888z"/><path d="M944 1575C948 1575 951 1575 954 1576C957 1579 958 1586 958 1591C959 1596 960 1602 959 1606C957 1606 953 1606 950 1605C947 1600 945 1582 944 1575z"/><path d="M1376 1544L1379 1546C1377 1551 1363 1567 1359 1571L1378 1572C1374 1573 1366 1575 1362 1573L1363 1572C1362 1574 1363 1573 1362 1574L1362 1574L1363 1573C1365 1574 1367 1574 1368 1575L1356 1575L1345 1589C1342 1593 1337 1599 1334 1601C1339 1593 1346 1583 1352 1575L1339 1575L1342 1573L1341 1572L1343 1570C1346 1572 1351 1572 1355 1571L1368 1555L1376 1544z"/><path d="M274 941C281 941 288 941 294 941C295 944 296 947 294 949C289 952 284 946 280 950C283 953 288 952 290 957C288 961 281 961 276 962C275 955 275 948 274 941z"/><path d="M709 1544C714 1544 717 1543 721 1546C726 1553 733 1564 738 1572C737 1572 733 1572 732 1572C724 1569 715 1551 709 1544z"/><path d="M1363 1546C1366 1550 1366 1551 1368 1555L1355 1571C1351 1572 1346 1572 1343 1570C1348 1566 1358 1552 1363 1546z"/><path d="M1416 1473C1419 1475 1421 1477 1423 1480C1421 1483 1411 1498 1408 1501L1402 1494C1407 1487 1412 1480 1416 1473z"/><path d="M983 295C989 295 990 297 994 301L994 316C991 322 989 322 983 325C983 315 984 305 983 295z"/><path d="M701 1515C705 1521 713 1533 716 1540C713 1541 709 1540 706 1540C705 1537 696 1525 694 1521L701 1515z"/><path d="M657 1559C662 1563 668 1568 674 1571L659 1572L653 1572C654 1566 653 1565 657 1559z"/><path d="M909 848C915 851 919 854 924 856C920 860 920 860 918 866L910 861L909 848z"/><path d="M1497 1323C1496 1327 1473 1372 1471 1373C1471 1368 1492 1328 1496 1320L1497 1323z"/><path d="M1166 751C1166 745 1166 735 1167 729L1168 728C1170 735 1169 745 1169 752C1168 756 1168 768 1168 773C1167 771 1166 755 1166 751z"/><path d="M1772 883C1777 883 1780 883 1785 882C1785 887 1784 902 1784 907C1783 901 1784 898 1781 895C1780 891 1775 886 1772 883z"/><path d="M1411 1561C1411 1566 1411 1568 1413 1571L1414 1572L1406 1572C1403 1572 1401 1572 1399 1571L1399 1569C1403 1566 1407 1564 1411 1561z"/><path d="M753 1593C756 1597 759 1600 760 1604C759 1607 760 1606 757 1607C752 1604 752 1603 748 1599L753 1593z"/><path d="M1368 1540L1376 1529C1378 1532 1380 1534 1383 1535L1380 1539C1376 1541 1372 1540 1368 1540z"/><path d="M1363 1546C1364 1545 1364 1545 1366 1544C1370 1543 1371 1543 1376 1544L1368 1555C1366 1551 1366 1550 1363 1546z"/><path d="M1187 1006C1191 1007 1195 1010 1199 1012C1194 1013 1189 1015 1184 1016C1185 1012 1185 1010 1187 1006z"/><path d="M994 316L994 324C992 327 987 331 984 330L983 325C989 322 991 322 994 316z"/><path d="M551 938C560 938 565 938 574 940L575 941L572 941L572 941C570 941 567 941 564 941C559 941 550 940 545 940L545 939L551 938z"/><path d="M609 1505C614 1511 622 1519 627 1523L623 1525C621 1520 613 1514 610 1511L609 1510L609 1505z"/><path d="M1377 962L1380 962C1379 967 1379 971 1378 977C1376 976 1377 976 1375 975C1374 974 1373 971 1373 970C1373 966 1374 964 1377 962z"/><path d="M863 1608C869 1609 871 1608 874 1613C871 1615 869 1617 867 1618L864 1613L863 1608z"/><path d="M610 1511C613 1514 621 1520 623 1525L622 1525C618 1523 610 1515 608 1512L610 1511z"/><path d="M1431 879L1435 874C1434 882 1433 893 1432 900L1431 900C1431 894 1431 886 1431 879z"/><path d="M1433 715C1436 718 1436 731 1435 735C1434 733 1433 728 1433 726C1432 721 1432 720 1433 715z"/><path d="M985 1540C990 1540 995 1540 1000 1541L1000 1542C996 1542 993 1542 988 1542C985 1542 986 1543 983 1541L985 1540z"/><path d="M975 1540L977 1541C974 1543 963 1542 959 1542L961 1541L960 1542L962 1542C963 1540 972 1541 975 1540z"/><path d="M1044 1541L1043 1542C1039 1542 1035 1543 1030 1542C1034 1541 1040 1541 1044 1541z"/><path d="M883 840C884 850 883 862 884 872C885 959 888 1048 893 1135C898 1238 908 1340 921 1443C925 1475 929 1508 934 1540C907 1540 873 1539 846 1540C843 1530 835 1511 831 1500C822 1476 814 1452 806 1427C767 1304 742 1177 734 1048C731 1017 729 982 730 950C730 947 731 947 733 945L730 944L728 941C725 943 727 945 721 947C719 942 718 940 718 934C737 925 757 916 776 907C779 905 793 897 795 897L796 898C797 897 797 895 797 893L799 893C803 892 804 892 807 890L807 888C805 889 803 890 801 890C800 887 800 870 801 865C802 863 803 864 806 862C826 855 862 845 883 840z"/><path d="M796 898C797 897 797 895 797 893L799 893C800 899 800 903 800 908C799 912 799 913 797 915C796 915 796 915 795 914C788 914 741 939 730 944L728 941C725 943 727 945 721 947C719 942 718 940 718 934C737 925 757 916 776 907C779 905 793 897 795 897L796 898z"/><path d="M796 898C797 897 797 895 797 893L799 893C800 899 800 903 800 908C799 912 799 913 797 915C796 915 796 915 795 914C796 911 796 902 796 898z"/><path d="M800 908L804 910C803 911 802 912 800 913C799 920 800 944 798 948L797 947C795 942 796 923 796 916C776 925 753 938 733 945L730 944C741 939 788 914 795 914C796 915 796 915 797 915C799 913 799 912 800 908z"/><path d="M1607 686C1604 683 1603 683 1603 679C1610 683 1699 795 1703 804C1704 806 1704 808 1706 810C1705 811 1705 812 1704 812C1714 825 1751 869 1756 880L1758 882L1762 882C1763 885 1763 899 1762 902L1762 902C1759 916 1759 931 1757 946C1753 975 1748 1005 1741 1034C1703 1203 1610 1365 1488 1487C1484 1492 1470 1507 1465 1507L1459 1509C1450 1517 1437 1531 1428 1540C1413 1540 1399 1540 1384 1540C1467 1435 1532 1336 1578 1209C1592 1172 1606 1130 1613 1092L1614 1090C1611 1084 1615 1084 1613 1079L1611 1079C1610 1083 1610 1085 1605 1086C1602 1085 1601 1085 1598 1084L1598 1085C1601 1087 1603 1088 1606 1090L1605 1091C1602 1090 1586 1080 1581 1077C1582 1069 1585 1056 1587 1047C1591 1025 1594 1004 1598 982C1609 915 1613 846 1611 777C1611 753 1606 717 1604 691C1604 691 1605 690 1605 690L1607 686z"/><path d="M1739 883C1747 883 1754 883 1762 884L1762 902C1759 916 1759 931 1757 946C1753 975 1748 1005 1741 1034C1703 1203 1610 1365 1488 1487L1485 1486C1598 1360 1677 1212 1717 1047C1729 993 1735 938 1739 883z"/><path d="M1738 861C1739 869 1740 872 1739 880C1744 880 1752 880 1756 880L1758 882L1762 882C1763 885 1763 899 1762 902L1762 902L1762 884C1754 883 1747 883 1739 883C1735 938 1729 993 1717 1047C1677 1212 1598 1360 1485 1486L1488 1487C1484 1492 1470 1507 1465 1507L1459 1509C1619 1345 1716 1130 1734 902C1733 901 1734 901 1732 900C1733 894 1726 887 1722 883L1720 881L1721 880L1735 880C1736 874 1737 867 1738 861z"/><path d="M1722 883L1736 883C1735 890 1735 896 1734 902C1733 901 1734 901 1732 900C1733 894 1726 887 1722 883z"/><path d="M1485 1486L1488 1487C1484 1492 1470 1507 1465 1507C1467 1504 1481 1489 1485 1486z"/><path d="M1625 790C1624 783 1622 766 1625 761L1627 762C1628 765 1628 765 1628 768C1639 781 1719 879 1721 880L1720 881L1722 883C1726 887 1733 894 1732 900C1729 898 1727 895 1723 893C1718 885 1717 882 1708 882C1707 881 1707 882 1708 880C1702 879 1703 880 1699 876C1690 866 1680 855 1672 845C1669 841 1667 839 1664 836C1652 823 1640 806 1628 793L1627 790L1625 790z"/><path d="M1638 789C1648 800 1658 812 1667 824C1665 829 1666 832 1664 836C1652 823 1640 806 1628 793C1630 792 1634 791 1638 789z"/><path d="M1672 845C1674 841 1675 841 1680 840C1690 852 1701 866 1711 878C1710 880 1710 879 1708 880C1702 879 1703 880 1699 876C1690 866 1680 855 1672 845z"/><path d="M1667 824C1671 829 1676 834 1680 840C1675 841 1674 841 1672 845C1669 841 1667 839 1664 836C1666 832 1665 829 1667 824z"/><path d="M1627 774C1630 779 1635 784 1638 789C1634 791 1630 792 1628 793L1627 790L1627 774z"/><path d="M1607 686C1604 683 1603 683 1603 679C1610 683 1699 795 1703 804C1704 806 1704 808 1706 810C1705 811 1705 812 1704 812C1699 807 1689 793 1684 787L1629 718C1623 711 1611 696 1605 690L1607 686z"/><path d="M1607 686C1604 683 1603 683 1603 679C1610 683 1699 795 1703 804C1692 793 1674 770 1664 757L1607 686z"/><path d="M1697 878C1679 859 1662 835 1643 815C1634 805 1625 795 1617 784C1620 784 1622 787 1625 790L1627 790L1628 793C1640 806 1652 823 1664 836C1667 839 1669 841 1672 845C1680 855 1690 866 1699 876L1697 878z"/><path d="M1699 876C1703 880 1702 879 1708 880C1707 882 1707 881 1708 882C1717 882 1718 885 1723 893L1718 898C1721 903 1728 908 1730 912L1729 913C1724 910 1706 888 1702 883L1694 882L1694 881L1691 882L1691 881L1692 880C1695 880 1695 880 1697 878L1699 876z"/><path d="M1708 882C1717 882 1718 885 1723 893L1718 898C1715 894 1707 887 1706 883L1708 882z"/><path d="M1613 1092L1614 1090C1621 1093 1629 1097 1636 1102C1628 1099 1620 1095 1613 1092z"/><path d="M1622 857C1623 859 1623 860 1624 862C1622 851 1621 857 1620 851C1622 852 1621 852 1623 852C1623 847 1622 830 1625 827L1625 829C1626 830 1626 834 1626 834C1656 865 1686 897 1712 932C1715 936 1721 944 1724 949L1712 938C1711 939 1709 940 1709 941C1704 940 1660 893 1653 886C1644 877 1631 864 1622 857z"/><path d="M1650 868C1669 889 1693 920 1712 938C1711 939 1709 940 1709 941C1704 940 1660 893 1653 886L1654 884C1651 882 1646 877 1643 874C1646 872 1648 870 1650 868z"/><path d="M1654 884C1659 888 1708 938 1709 941C1704 940 1660 893 1653 886L1654 884z"/><path d="M1622 857C1623 859 1623 860 1624 862C1622 851 1621 857 1620 851C1622 852 1621 852 1623 852C1623 847 1622 830 1625 827L1625 829C1625 833 1625 838 1626 841C1628 842 1647 864 1650 868C1648 870 1646 872 1643 874C1646 877 1651 882 1654 884L1653 886C1644 877 1631 864 1622 857z"/><path d="M1622 857C1623 859 1623 860 1624 862C1622 851 1621 857 1620 851C1622 852 1621 852 1623 852C1623 847 1622 830 1625 827L1625 829C1625 833 1625 838 1626 841C1626 847 1626 851 1626 857C1633 862 1638 868 1643 874C1646 877 1651 882 1654 884L1653 886C1644 877 1631 864 1622 857z"/><path d="M1624 895C1637 907 1685 953 1687 969L1686 969C1679 964 1673 955 1667 949C1654 936 1636 913 1624 901C1626 899 1622 902 1624 895z"/><path d="M1614 956L1612 951C1613 949 1614 949 1617 949C1629 965 1653 990 1667 1008C1667 1009 1667 1010 1667 1010L1665 1012C1656 1009 1625 964 1616 958L1615 958L1614 956z"/><path d="M1614 956L1615 958L1616 958C1615 962 1615 968 1615 973C1626 989 1658 1018 1665 1031C1660 1031 1621 984 1614 977C1612 977 1613 977 1611 977C1610 975 1607 966 1607 965C1609 967 1611 968 1613 969C1614 966 1614 960 1614 956z"/><path d="M1672 971C1660 958 1647 945 1634 932C1631 928 1628 924 1624 921C1623 922 1623 923 1623 925L1621 924C1619 920 1620 898 1622 894L1624 895C1622 902 1626 899 1624 901L1623 916C1637 931 1651 946 1665 961C1669 964 1672 967 1675 971L1672 971z"/><path d="M1672 971L1675 971C1679 976 1683 980 1686 985L1685 985C1680 981 1675 977 1672 971z"/><path d="M1260 1019C1268 1018 1277 1014 1284 1012C1304 1008 1331 997 1350 993C1348 1144 1297 1326 1242 1467C1236 1484 1221 1525 1213 1540C1177 1540 1141 1540 1106 1540C1129 1377 1146 1213 1158 1049C1187 1041 1230 1030 1258 1020L1260 1019z"/><path d="M1258 1090C1259 1079 1256 1047 1261 1039C1261 1056 1264 1154 1261 1163C1259 1154 1259 1102 1258 1090z"/><path d="M1258 1020L1260 1019C1260 1023 1261 1036 1261 1039C1256 1047 1259 1079 1258 1090C1256 1078 1258 1051 1258 1039C1258 1033 1259 1025 1258 1020z"/><path d="M541 956C546 957 586 979 593 983C631 1002 668 1023 706 1043C720 1214 760 1382 827 1540L817 1540C786 1540 755 1540 724 1540C715 1524 705 1509 696 1493C618 1362 572 1214 549 1063C546 1039 538 989 543 965C545 966 546 967 549 967C547 963 543 964 541 956z"/><path d="M577 1028C589 1035 604 1042 617 1048L682 1083L684 1079L685 1080C686 1083 686 1084 687 1086C687 1087 690 1089 691 1089L692 1091L692 1090L693 1091C689 1092 690 1091 688 1094C689 1098 689 1103 690 1108C692 1139 698 1170 703 1202C694 1183 688 1124 685 1101C654 1085 619 1070 587 1054C587 1058 587 1060 587 1063L586 1063C583 1060 584 1055 583 1052C581 1050 578 1050 577 1046C580 1047 579 1047 581 1046L580 1042L577 1028z"/><path d="M577 1028C589 1035 604 1042 617 1048L682 1083L684 1079L685 1080C686 1083 686 1084 687 1086C686 1088 686 1087 687 1089L686 1090C685 1093 684 1093 684 1097C684 1096 684 1094 684 1093C682 1087 630 1063 621 1058C618 1055 599 1045 595 1043C592 1041 587 1037 584 1037L583 1040L580 1042L577 1028z"/><path d="M618 1066C619 1062 619 1061 621 1058C630 1063 682 1087 684 1093C684 1094 684 1096 684 1097L683 1098C678 1097 626 1070 618 1066z"/><path d="M595 1043C599 1045 618 1055 621 1058C619 1061 619 1062 618 1066C609 1061 601 1057 592 1052C595 1049 595 1047 595 1043z"/><path d="M583 1040L584 1037C587 1037 592 1041 595 1043C595 1047 595 1049 592 1052C584 1049 585 1048 583 1040z"/><path d="M587 1082C603 1096 681 1129 688 1139C684 1141 664 1131 659 1128C657 1130 655 1131 654 1134C662 1138 671 1143 680 1147C664 1143 613 1117 596 1109L595 1110L595 1114L594 1116C592 1113 592 1112 591 1108C590 1106 589 1106 589 1104C589 1097 588 1090 587 1082z"/><path d="M591 1092C603 1099 619 1108 631 1114C631 1117 631 1120 628 1121C636 1126 645 1130 654 1134C662 1138 671 1143 680 1147C664 1143 613 1117 596 1109L595 1110L595 1114L594 1116C592 1113 592 1112 591 1108L593 1104C593 1099 592 1096 591 1092z"/><path d="M593 1104C603 1110 616 1116 628 1121C636 1126 645 1130 654 1134C662 1138 671 1143 680 1147C664 1143 613 1117 596 1109L595 1110L595 1114L594 1116C592 1113 592 1112 591 1108L593 1104z"/><path d="M631 1114L659 1128C657 1130 655 1131 654 1134C645 1130 636 1126 628 1121C631 1120 631 1117 631 1114z"/><path d="M603 1162C604 1165 604 1166 605 1170L604 1171C602 1165 601 1161 596 1158L595 1156L599 1156C600 1151 595 1146 597 1140L598 1139L603 1141C602 1144 602 1143 600 1145C611 1152 620 1157 631 1163C628 1164 626 1166 624 1169C631 1172 680 1193 682 1197C676 1197 613 1167 603 1162z"/><path d="M600 1145C611 1152 620 1157 631 1163C628 1164 626 1166 624 1169L603 1159L600 1145z"/><path d="M603 1141C611 1145 671 1175 676 1179L676 1181C672 1186 639 1166 631 1163C620 1157 611 1152 600 1145C602 1143 602 1144 603 1141z"/><path d="M1017 326C1025 334 1065 379 1070 387C1071 395 1071 404 1071 412C1070 441 1071 470 1068 500C1070 501 1069 501 1071 501C1072 504 1072 509 1071 512L1069 512C1072 517 1092 536 1096 537C1091 532 1081 522 1075 516L1076 501C1091 511 1101 519 1114 531C1114 551 1113 813 1111 817L1111 821C1112 827 1112 856 1112 865L1111 956C1107 953 1102 951 1098 948L1095 946C1090 944 1077 936 1071 933C1056 924 1040 915 1025 906L1023 902L1022 903C1019 903 982 881 976 878C979 804 978 726 978 651L977 650C966 639 968 639 963 625C964 633 964 637 966 644C961 640 956 637 952 633C953 614 953 588 953 569L954 473C965 466 976 460 987 453C987 456 988 456 988 459L990 460C992 456 993 447 994 442L1001 441L1001 440C999 437 999 441 995 438C994 430 996 413 996 405C997 385 998 364 999 344L1009 335C1010 381 1008 425 1008 471L1005 722C1004 758 1004 795 1003 831C1003 842 1002 873 1005 882L1007 883C1010 878 1010 840 1010 832L1012 710C1012 631 1015 550 1015 471C1015 441 1016 411 1016 381C1016 376 1016 356 1017 351C1018 349 1018 347 1019 345C1016 342 1017 330 1017 326z"/><path d="M1017 326C1025 334 1065 379 1070 387C1071 395 1071 404 1071 412C1070 441 1071 470 1068 500C1070 501 1069 501 1071 501C1072 504 1072 509 1071 512L1069 512C1072 517 1092 536 1096 537C1091 532 1081 522 1075 516L1076 501C1091 511 1101 519 1114 531C1114 551 1113 813 1111 817L1111 821C1112 827 1112 856 1112 865L1111 956C1107 953 1102 951 1098 948L1095 946C1096 922 1096 898 1095 874C1095 863 1096 842 1094 831L1093 829C1095 827 1095 826 1095 822C1095 790 1095 759 1095 727L1095 544C1087 536 1082 532 1074 525L1071 522L1062 513L1058 512C1058 511 1057 509 1057 508C1054 504 1052 502 1050 498C1053 499 1055 501 1057 503L1056 397C1044 382 1029 367 1017 351C1018 349 1018 347 1019 345C1016 342 1017 330 1017 326z"/><path d="M1076 501C1091 511 1101 519 1114 531C1114 551 1113 813 1111 817L1111 821L1100 827L1100 824C1098 802 1100 756 1100 733L1102 542C1100 540 1098 539 1096 537C1091 532 1081 522 1075 516L1076 501z"/><path d="M1100 824L1111 817L1111 821L1100 827L1100 824z"/><path d="M1111 821C1112 827 1112 856 1112 865L1111 956C1107 953 1102 951 1098 948C1100 938 1099 921 1099 911L1099 856C1099 850 1099 832 1100 827L1111 821z"/><path d="M1057 388C1060 387 1066 387 1070 387C1071 395 1071 404 1071 412C1070 441 1071 470 1068 500C1070 501 1069 501 1071 501C1072 504 1072 509 1071 512L1069 512C1067 510 1065 507 1062 505C1063 469 1063 433 1063 396L1057 388z"/><path d="M1017 326C1025 334 1065 379 1070 387C1066 387 1060 387 1057 388C1050 383 1026 353 1019 345C1016 342 1017 330 1017 326z"/><path d="M1023 902C1021 875 1023 827 1023 799C1023 737 1024 676 1025 614C1025 586 1026 557 1026 528C1026 516 1025 494 1027 482L1027 483C1031 503 1028 564 1028 588L1027 789L1026 865C1026 873 1027 899 1025 906L1023 902z"/><path d="M1071 522L1074 525C1074 532 1074 575 1072 579C1069 570 1071 535 1071 522z"/><path d="M1058 512L1062 513C1062 517 1062 525 1059 527C1057 522 1058 517 1058 512z"/><path d="M1094 831C1091 833 1088 834 1085 834C1087 831 1090 831 1093 829L1094 831z"/><path d="M1458 712C1482 707 1505 702 1529 695C1543 692 1566 685 1579 683C1587 773 1587 854 1577 944C1573 983 1568 1017 1562 1055L1561 1067C1557 1065 1553 1063 1550 1061C1513 1044 1477 1025 1441 1008C1439 1006 1440 1007 1439 1005C1449 948 1455 908 1459 851L1462 854C1465 828 1464 737 1458 712z"/><path d="M1459 851L1462 854C1460 873 1448 998 1441 1008C1439 1006 1440 1007 1439 1005C1449 948 1455 908 1459 851z"/><path d="M1550 1061C1554 1058 1557 1057 1562 1055L1561 1067C1557 1065 1553 1063 1550 1061z"/><path d="M1135 808C1142 804 1158 791 1164 792C1165 796 1165 798 1164 801L1165 803C1166 805 1165 804 1167 806C1171 812 1168 824 1170 831C1171 824 1169 810 1172 805L1173 805L1176 807L1177 809C1184 811 1250 864 1259 872C1259 913 1256 954 1256 995C1238 1001 1219 1006 1201 1012C1195 1005 1181 998 1173 993L1173 979C1172 983 1172 985 1172 989L1171 990L1170 989L1169 989C1166 989 1167 990 1164 987C1163 982 1163 979 1163 974C1163 975 1162 974 1161 974C1161 977 1161 982 1160 985C1147 977 1129 965 1115 959C1115 931 1116 903 1117 875C1118 865 1117 837 1119 828L1118 827C1118 815 1125 813 1135 808z"/><path d="M1135 808C1142 804 1158 791 1164 792C1165 796 1165 798 1164 801L1165 803C1166 805 1165 804 1167 806C1171 812 1168 824 1170 831C1170 836 1171 839 1169 844C1166 853 1163 957 1163 974C1163 975 1162 974 1161 974C1161 977 1161 982 1160 985C1147 977 1129 965 1115 959C1115 931 1116 903 1117 875C1118 865 1117 837 1119 828L1118 827C1118 815 1125 813 1135 808z"/><path d="M1135 808C1142 804 1158 791 1164 792C1165 796 1165 798 1164 801L1165 803C1166 805 1165 804 1167 806C1171 812 1168 824 1170 831C1170 836 1171 839 1169 844C1166 853 1163 957 1163 974C1163 975 1162 974 1161 974C1162 919 1165 861 1164 807C1151 812 1130 825 1119 828L1118 827C1118 815 1125 813 1135 808z"/><path d="M1135 808C1142 804 1158 791 1164 792C1165 796 1165 798 1164 801C1156 806 1147 811 1139 815C1138 812 1137 811 1135 808z"/><path d="M1118 827C1118 815 1125 813 1135 808C1137 811 1138 812 1139 815C1132 819 1125 824 1118 827z"/><path d="M1170 831C1171 824 1169 810 1172 805L1173 805L1176 807L1177 809C1178 862 1175 926 1173 979C1172 983 1172 985 1172 989L1171 990L1170 989L1169 989C1166 989 1167 990 1164 987C1163 982 1163 979 1163 974C1163 957 1166 853 1169 844C1171 839 1170 836 1170 831z"/><path d="M1176 807L1177 809C1178 862 1175 926 1173 979C1172 983 1172 985 1172 989L1171 990L1170 989C1172 937 1173 885 1175 833C1175 824 1175 816 1176 807z"/><path d="M890 618C891 616 891 617 892 615C891 611 890 606 892 603L893 605L894 603C900 606 915 617 921 621C929 626 931 626 930 636L932 636L933 631C940 630 948 638 949 644C951 643 950 643 951 642C956 642 967 650 972 653C971 726 969 804 971 876L959 867C951 864 920 845 911 840C911 833 910 829 910 822C909 826 908 834 905 837L903 836C901 833 901 817 901 812C898 816 902 827 899 832C897 832 897 832 895 832C893 828 895 824 893 819C893 823 894 827 891 830C890 830 891 830 889 829C887 819 891 762 891 749C891 721 892 691 892 663C892 659 892 657 889 654C886 652 886 621 890 618z"/><path d="M889 654C886 652 886 621 890 618L890 620L892 620L893 619C897 619 899 622 900 626C902 632 900 636 902 642C903 696 903 758 901 812C898 816 902 827 899 832C897 832 897 832 895 832C893 828 895 824 893 819C893 823 894 827 891 830C890 830 891 830 889 829C887 819 891 762 891 749C891 721 892 691 892 663C892 659 892 657 889 654z"/><path d="M900 626C902 632 900 636 902 642C903 696 903 758 901 812C898 816 902 827 899 832C897 832 897 832 895 832C893 828 895 824 893 819L893 818C896 818 896 817 899 817C898 776 900 736 899 695C899 681 898 638 900 626z"/><path d="M899 817C899 821 898 827 899 832C897 832 897 832 895 832C893 828 895 824 893 819L893 818C896 818 896 817 899 817z"/><path d="M889 654C886 652 886 621 890 618L890 620L892 620C893 631 893 652 892 663C892 659 892 657 889 654z"/><path d="M889 654C886 652 886 621 890 618L890 620C890 631 890 643 889 654z"/><path d="M893 818L893 819C893 823 894 827 891 830C891 825 890 821 893 818z"/><path d="M932 636L933 631C940 630 948 638 949 644C951 643 950 643 951 642C956 642 967 650 972 653C971 726 969 804 971 876L959 867L960 867C959 860 959 851 959 844C962 839 960 812 961 803C962 754 963 707 961 658C955 653 935 641 932 636z"/><path d="M959 844C962 839 960 812 961 803C962 813 963 860 960 867C959 860 959 851 959 844z"/><path d="M890 618C891 616 891 617 892 615C891 611 890 606 892 603L893 605L894 603C900 606 915 617 921 621C929 626 931 626 930 636L932 636C935 641 955 653 961 658C963 707 962 754 961 803C960 812 962 839 959 844C958 819 958 794 957 768C956 732 956 696 956 660C940 648 919 636 902 625L902 642C900 636 902 632 900 626C899 622 897 619 893 619L892 620L890 620L890 618z"/><path d="M893 605L894 603C900 606 915 617 921 621C919 625 920 625 917 628C910 622 901 619 895 613C892 611 893 608 893 605z"/><path d="M921 621C929 626 931 626 930 636C927 635 920 630 917 628C920 625 919 625 921 621z"/><path d="M805 663C830 651 861 633 884 619L884 746C884 774 884 803 884 831C883 835 884 836 882 838L883 840C862 845 826 855 806 862L802 860C800 855 805 684 805 663z"/><path d="M882 838L883 840C862 845 826 855 806 862L802 860C806 859 822 854 827 853C845 848 863 843 882 838z"/><path d="M896 839C898 842 899 845 900 848L899 850C898 853 898 853 898 856L901 859C904 862 905 862 905 867C905 872 905 879 905 884C901 1103 916 1322 950 1539C947 1540 943 1540 939 1540C937 1533 935 1514 934 1506C929 1478 926 1450 923 1422C913 1338 906 1255 902 1171C899 1120 895 1059 895 1008C893 993 893 852 896 839z"/><path d="M896 839C898 842 899 845 900 848L899 850C898 853 898 853 898 856L901 859C904 862 905 862 905 867C905 872 905 879 905 884C902 884 899 885 896 885C895 892 895 908 895 916L896 976C896 985 896 1000 895 1008C893 993 893 852 896 839z"/><path d="M898 856L901 859C901 863 901 873 899 875L900 876L899 877L899 877L899 875L899 874C898 868 898 862 898 856z"/><path d="M721 949L725 949C726 954 726 994 727 1002C728 1040 731 1077 735 1115C747 1225 770 1334 805 1439C813 1465 823 1490 832 1516L825 1518C773 1389 738 1253 721 1115C719 1095 716 1071 715 1051C715 1047 716 1050 719 1048C718 1046 714 1042 714 1040C712 1013 711 985 712 957C714 952 716 952 721 949z"/><path d="M1592 679L1596 678C1598 683 1602 714 1602 721C1616 835 1601 963 1577 1075L1564 1068C1570 1052 1573 1027 1576 1011C1586 948 1591 885 1593 822C1593 809 1595 794 1594 781C1594 779 1594 778 1593 776C1592 768 1590 739 1589 730C1588 715 1585 696 1585 682C1587 679 1587 680 1592 679z"/><path d="M1592 679L1596 678C1598 683 1602 714 1602 721C1599 722 1599 722 1596 724C1596 736 1596 770 1594 781C1594 779 1594 778 1593 776C1592 768 1590 739 1589 730C1588 715 1585 696 1585 682C1587 679 1587 680 1592 679z"/><path d="M1593 776C1592 768 1590 739 1589 730C1588 715 1585 696 1585 682C1587 679 1587 680 1592 679C1593 709 1595 746 1593 776z"/><path d="M1596 724C1595 716 1594 682 1596 678C1598 683 1602 714 1602 721C1599 722 1599 722 1596 724z"/><path d="M1448 711L1450 711C1457 729 1460 798 1460 820C1459 828 1458 845 1459 851C1455 908 1449 948 1439 1005C1438 1006 1438 1005 1436 1006C1432 1004 1431 1002 1429 998L1428 996C1428 998 1427 999 1427 1001L1425 1001C1422 995 1428 988 1429 982C1431 967 1433 952 1434 938C1439 936 1441 935 1446 933L1445 932C1441 933 1438 934 1434 935C1446 858 1447 790 1440 712C1444 712 1444 712 1448 711z"/><path d="M786 654C796 647 820 636 832 630C836 634 836 634 839 638C827 645 809 654 798 661C800 672 798 721 798 734L796 826C796 832 797 859 794 862L793 863L794 865C791 866 787 867 784 868L782 866C780 852 782 810 783 793L786 654z"/><path d="M793 863L794 865C791 866 787 867 784 868L782 866C785 865 789 864 793 863z"/><path d="M1105 1544C1139 1543 1177 1543 1211 1544C1208 1551 1205 1558 1202 1566C1201 1567 1200 1569 1199 1571C1194 1573 1113 1572 1101 1571C1103 1564 1104 1552 1105 1544z"/><path d="M727 1544C733 1543 740 1543 746 1543C773 1543 801 1543 829 1544C833 1553 837 1562 841 1572C818 1572 791 1571 768 1572C762 1571 752 1572 746 1572C739 1563 733 1553 727 1544z"/><path d="M1242 850C1244 846 1245 845 1248 842C1259 850 1270 857 1281 865C1281 906 1279 947 1279 988C1273 990 1268 992 1261 993C1264 951 1264 910 1266 869C1258 862 1250 856 1242 850z"/><path d="M848 1544C876 1543 907 1543 935 1544C936 1551 939 1564 940 1572L860 1572C855 1562 852 1553 848 1544z"/><path d="M943 459C943 463 942 471 945 474L946 475C946 476 947 476 947 477C947 520 949 592 948 631C946 630 945 629 942 627L940 626C937 624 936 623 934 620C934 614 937 464 937 464C937 463 938 462 938 461C941 462 939 462 942 462L943 459z"/><path d="M946 475C946 476 947 476 947 477C947 520 949 592 948 631C946 630 945 629 942 627C943 625 943 593 943 589L943 484C943 479 943 478 946 475z"/><path d="M943 459C943 463 942 471 945 474L946 475C943 478 943 479 943 484L943 589C943 593 943 625 942 627L940 626C940 625 940 603 940 600C939 567 940 532 940 498C939 490 940 468 938 461C941 462 939 462 942 462L943 459z"/><path d="M1441 696L1577 664L1578 679C1544 688 1507 695 1472 703C1468 704 1460 707 1457 707L1454 702L1452 702L1450 704C1446 702 1442 700 1441 696z"/><path d="M991 348C994 354 990 402 989 411C989 417 989 435 988 440C981 440 977 440 971 439C979 434 979 435 979 427C981 408 980 376 982 356C982 356 983 355 984 354C986 352 989 350 991 348z"/><path d="M979 427C981 430 980 429 983 430C990 428 984 417 989 411C989 417 989 435 988 440C981 440 977 440 971 439C979 434 979 435 979 427z"/><path d="M970 441L971 441L971 439C977 440 981 440 988 440L988 442C988 445 989 446 987 449C977 454 954 467 945 474C942 471 943 463 943 459C952 454 962 445 970 441z"/><path d="M970 441L971 441L971 439C977 440 981 440 988 440L988 442C984 442 974 443 970 441z"/><path d="M957 1543C964 1543 971 1543 978 1544C979 1553 980 1562 980 1571L961 1571C959 1562 958 1553 957 1543z"/><path d="M1064 1574C1070 1575 1074 1575 1080 1575C1079 1583 1078 1598 1076 1605C1071 1606 1065 1605 1060 1606C1062 1597 1063 1583 1064 1574z"/><path d="M1215 828C1207 822 1164 796 1173 786C1188 798 1204 809 1219 820C1218 824 1218 825 1215 828z"/><path d="M1080 1543L1083 1544C1084 1549 1082 1569 1079 1572C1074 1571 1069 1572 1064 1572L1067 1544C1072 1543 1076 1543 1080 1543z"/><path d="M1047 1543C1052 1543 1057 1544 1062 1544C1061 1552 1059 1563 1059 1572L1045 1572L1047 1543z"/><path d="M794 865C797 868 796 889 794 893L793 893C789 893 785 895 780 897C780 891 781 885 781 879C781 874 780 871 784 868C787 867 791 866 794 865z"/><path d="M781 879C782 888 785 890 793 893C789 893 785 895 780 897C780 891 781 885 781 879z"/><path d="M1085 1575L1097 1575C1096 1586 1095 1595 1093 1606L1081 1606C1082 1595 1083 1586 1085 1575z"/><path d="M850 621C857 617 877 606 883 604L884 605C885 608 885 609 884 612C879 617 863 625 855 629L850 621z"/><path d="M939 1543C943 1544 947 1543 951 1543C952 1551 955 1564 954 1571C951 1574 943 1570 942 1565C941 1558 940 1551 939 1543z"/><path d="M1219 820C1226 826 1241 836 1248 842C1245 845 1244 846 1242 850C1233 843 1224 836 1215 828C1218 825 1218 824 1219 820z"/><path d="M1090 1544C1093 1543 1096 1543 1099 1545C1103 1550 1099 1564 1098 1572L1086 1571C1087 1563 1089 1552 1090 1544z"/><path d="M849 1575C854 1575 854 1575 857 1577L859 1582C862 1588 867 1599 869 1606C868 1606 864 1606 863 1605C859 1602 855 1591 853 1586C851 1582 850 1579 849 1575z"/><path d="M849 1575C854 1575 854 1575 857 1577L859 1582C857 1584 856 1584 853 1586C851 1582 850 1579 849 1575z"/><path d="M835 1543C839 1544 841 1543 843 1545C848 1552 851 1562 854 1571C851 1572 850 1572 847 1572C843 1564 838 1551 835 1543z"/><path d="M832 630C837 627 844 624 850 621L855 629C852 631 842 637 839 638C836 634 836 634 832 630z"/><path d="M832 1516C835 1524 839 1532 841 1540L834 1540C832 1534 827 1524 825 1518L832 1516z"/><path d="M993 333C993 338 994 341 991 345L991 348C989 350 986 352 984 354L983 352C982 348 983 343 983 339C986 337 990 335 993 333z"/><path d="M991 345L991 348C989 350 986 352 984 354L983 352L991 345z"/><path d="M712 957C712 951 712 945 713 939C714 936 715 936 718 934C718 940 719 942 721 947L720 948L721 949C716 952 714 952 712 957z"/><path d="M1580 663L1586 662C1591 665 1592 670 1591 676C1587 677 1588 677 1585 676C1582 672 1581 668 1580 663z"/><path d="M1440 712C1440 707 1438 702 1439 698L1441 696C1442 700 1446 702 1450 704L1450 707C1448 709 1448 709 1445 710C1446 710 1447 710 1448 711C1444 712 1444 712 1440 712z"/><path d="M997 331C1001 328 1004 324 1009 324L1011 325C1011 329 1009 331 1006 333C1003 335 1002 336 999 338C997 335 998 334 997 331z"/><path d="M900 848L901 845L903 844C906 847 908 853 907 858L905 859C899 855 901 855 899 850L900 848z"/><path d="M887 603C887 604 887 611 887 613C885 610 885 606 887 603z"/><path d="M981 284C980 267 982 156 985 152C988 157 983 273 984 290L985 291C988 289 990 288 994 287C993 267 992 251 990 231C997 247 996 267 996 285C1000 281 1006 277 1011 275C1011 271 1011 261 1012 258C1014 261 1013 279 1015 287L1016 287L1016 287L1012 288C1012 290 1011 291 1011 292C1011 297 1011 307 1009 311L1010 313L1008 315C1004 319 1001 321 997 323L994 324L994 316L994 301C990 297 989 295 983 295C981 297 980 297 979 300C975 304 946 325 942 326C940 321 987 298 980 287C976 280 966 273 961 267C966 268 976 279 981 284z"/><path d="M997 287C1002 284 1006 280 1011 276L1011 292C1011 297 1011 307 1009 311C1006 307 1002 304 997 301L997 287z"/><path d="M997 303C1000 307 1004 311 1008 315C1004 319 1001 321 997 323C996 317 996 310 997 303z"/><path d="M746 631C746 615 746 492 748 488C751 497 750 533 749 544L750 631L779 631L780 633L749 633C749 650 751 742 748 750C747 737 747 717 746 704L746 633C736 633 663 636 660 634C669 631 732 631 746 631z"/><path d="M1765 872C1766 856 1764 767 1767 758C1770 768 1770 858 1769 873L1765 872z"/><path d="M538 928C537 913 536 832 539 822C542 827 542 917 541 929L540 935L539 935L538 928z"/><path d="M890 543L892 540L893 541C894 549 893 582 894 591L889 593L888 593L885 594C884 587 883 554 887 551C890 548 889 547 890 543z"/><path d="M890 543L892 540L893 541C894 549 893 582 894 591L889 593C891 583 891 553 890 543z"/><path d="M885 594C884 587 883 554 887 551L888 593L885 594z"/><path d="M296 936C294 930 295 834 296 824L297 824C299 836 298 853 298 865C299 883 299 901 298 919C298 923 298 933 296 936z"/><path d="M1115 522C1116 511 1116 440 1118 437C1122 452 1119 504 1119 523L1115 522z"/><path d="M1078 387C1102 390 1127 392 1152 394C1158 395 1181 397 1186 398C1176 400 1157 397 1146 396C1124 395 1100 391 1078 390L1078 387z"/><path d="M1072 366C1072 357 1073 270 1075 269C1077 275 1075 331 1075 341C1073 345 1075 373 1073 375L1072 366z"/><path d="M1282 858C1282 850 1281 798 1283 794C1287 799 1285 848 1285 858L1282 858z"/><path d="M1600 650C1608 649 1670 649 1674 651C1652 653 1621 653 1598 652L1600 650z"/><path d="M1587 654C1579 649 1536 656 1529 652L1530 651C1539 649 1577 649 1588 650L1587 654z"/><path d="M1589 640C1588 629 1586 592 1587 582L1588 582C1590 595 1591 612 1592 625C1591 631 1591 635 1589 640z"/><path d="M1369 941C1369 935 1367 916 1370 912C1371 916 1372 949 1372 956L1371 960C1369 957 1369 946 1369 941z"/><path d="M780 631C789 631 798 631 807 633C801 634 789 634 784 633L780 631z"/><path d="M1122 535L1123 532C1127 536 1130 540 1133 545L1133 546C1128 543 1126 540 1122 535z"/><path d="M283 1406C283 1401 283 1397 285 1392C286 1394 286 1398 286 1401L283 1406z"/><path d="M1610 658C1614 658 1617 657 1622 658C1619 660 1613 660 1610 660L1610 658z"/><path d="M701 939C697 940 695 941 691 941C693 939 696 938 699 937L701 939z"/></svg>